<svg xmlns="http://www.w3.org/2000/svg" width="342" height="193" fill="none" viewBox="0 0 342 193">
  <g clip-path="url(#a)">
    <path fill="#fff" d="M341.556 0H-.019v192.756h341.575V0Z"/>
    <path fill="#fff" d="M167.985 18.582H26.971v95.785h141.014V18.582Z"/>
    <path fill="#004494" d="M165.274 21.208H29.683v90.395h135.591V21.208Z"/>
    <path fill="#FFF000" d="m94.589 40.904 2.86-2.089 2.862 2.089-1.09-3.377 2.907-2.087h-3.582l-1.096-3.418-1.096 3.422-3.581-.005 2.905 2.089-1.09 3.376Zm-14.807 3.977 2.862-2.088 2.86 2.088-1.088-3.376 2.904-2.088h-3.582l-1.096-3.422-1.097 3.425-3.58-.003 2.904 2.088-1.087 3.376Zm-7.972 1.974-1.097 3.425-3.58-.005 2.904 2.089-1.088 3.377 2.861-2.088 2.861 2.087-1.089-3.377 2.904-2.087h-3.58l-1.096-3.422ZM67.835 68.44l2.86 2.088-1.087-3.377 2.904-2.087h-3.58l-1.097-3.422-1.096 3.429-3.582-.007 2.906 2.087-1.089 3.377 2.861-2.088Zm5.071 11.456-1.096-3.422-1.097 3.426-3.58-.004 2.904 2.088-1.088 3.376 2.861-2.091 2.861 2.09-1.089-3.375 2.904-2.088h-3.58ZM83.76 90.749l-1.096-3.417-1.094 3.421-3.582-.004 2.904 2.088-1.087 3.377 2.861-2.088 2.859 2.088-1.087-3.377 2.904-2.088H83.76Zm14.788 3.934-1.096-3.421-1.095 3.425-3.582-.004 2.904 2.088-1.087 3.377 2.862-2.088 2.859 2.088-1.09-3.377 2.907-2.088h-3.582Zm14.788-3.934-1.095-3.417-1.098 3.421-3.578-.004 2.902 2.088-1.087 3.377 2.861-2.088 2.861 2.088-1.09-3.377 2.906-2.088h-3.582Zm10.858-10.853-1.098-3.422-1.099 3.426-3.578-.004 2.906 2.088-1.091 3.376 2.862-2.091 2.861 2.09-1.091-3.375 2.906-2.088h-3.578Zm7.511-14.874h-3.582l-1.098-3.421-1.094 3.425-3.582-.004 2.906 2.088-1.087 3.377 2.857-2.092 2.861 2.092-1.087-3.377 2.906-2.088Zm-11.471-9.326 2.862-2.088 2.861 2.088-1.091-3.377 2.906-2.085h-3.578l-1.098-3.422-1.099 3.427-3.578-.005 2.906 2.084-1.091 3.378Zm-7.952-19.697-1.094 3.425-3.582-.007 2.902 2.091-1.087 3.377 2.865-2.092 2.857 2.092-1.087-3.377 2.906-2.091h-3.585l-1.095-3.418Z"/>
    <path fill="#646567" d="M40.152 171.359v-9.921H41.5l5.211 7.789v-7.789h1.258v9.921h-1.346l-5.21-7.796v7.796h-1.26Zm14.786-2.313 1.26.156c-.199.735-.567 1.306-1.104 1.712-.537.405-1.223.608-2.058.608-1.05 0-1.885-.323-2.5-.971-.616-.647-.924-1.556-.924-2.724 0-1.209.311-2.147.934-2.815.622-.667 1.43-1.001 2.423-1.001.961 0 1.746.327 2.354.98.61.654.914 1.575.914 2.762 0 .072-.003.18-.007.324h-5.359c.045.79.268 1.395.67 1.813.401.42.901.63 1.502.63.446 0 .828-.117 1.144-.353.315-.232.566-.606.751-1.121Zm-3.999-1.969h4.013c-.054-.604-.208-1.059-.46-1.36-.389-.47-.892-.704-1.509-.704-.56 0-1.03.188-1.41.562-.383.374-.594.875-.634 1.502Zm5.975 4.283 2.626-3.735-2.43-3.451h1.522l1.104 1.685c.207.32.374.589.5.806.2-.298.382-.562.55-.792l1.21-1.698h1.455l-2.483 3.384 2.673 3.803h-1.496l-1.475-2.233-.393-.602-1.888 2.835h-1.475v-.002Zm10.401-1.09.176 1.076a4.525 4.525 0 0 1-.92.108c-.442 0-.785-.07-1.029-.21a1.172 1.172 0 0 1-.514-.552c-.1-.228-.149-.707-.149-1.438v-4.135h-.894v-.947h.894v-1.78l1.212-.73v2.511h1.225v.947H66.09v4.202c0 .348.021.571.063.67.043.1.113.179.21.237.097.058.235.088.416.088.137 0 .314-.015.536-.047Zm5.988-2.801v-1.164l4.203-.007v3.681a7.432 7.432 0 0 1-1.997 1.161 5.928 5.928 0 0 1-2.11.389c-.975 0-1.86-.208-2.656-.626a4.14 4.14 0 0 1-1.804-1.81c-.406-.79-.609-1.672-.609-2.646 0-.965.202-1.866.605-2.703.404-.837.985-1.458 1.743-1.864.758-.406 1.631-.609 2.62-.609.716 0 1.364.116 1.944.349.58.232 1.034.556 1.363.971.33.416.58.957.751 1.625l-1.184.324c-.149-.505-.334-.902-.556-1.19-.22-.289-.536-.521-.947-.694a3.484 3.484 0 0 0-1.367-.261c-.6 0-1.118.092-1.556.274a2.9 2.9 0 0 0-1.06.721 3.435 3.435 0 0 0-.626.981 5.183 5.183 0 0 0-.379 1.996c0 .885.152 1.624.457 2.22a2.92 2.92 0 0 0 1.33 1.326 4.108 4.108 0 0 0 1.854.434c.568 0 1.124-.109 1.665-.328.541-.22.952-.453 1.231-.701v-1.847h-2.915v-.002Zm10.902 1.577 1.26.156c-.199.735-.567 1.306-1.104 1.712-.537.405-1.223.608-2.058.608-1.05 0-1.885-.323-2.5-.971-.616-.647-.924-1.556-.924-2.724 0-1.209.311-2.147.934-2.815.622-.667 1.43-1.001 2.423-1.001.961 0 1.746.327 2.354.98.61.654.914 1.575.914 2.762 0 .072-.003.18-.007.324h-5.359c.045.79.268 1.395.67 1.813.401.42.901.63 1.502.63.446 0 .828-.117 1.144-.353.315-.232.566-.606.751-1.121Zm-3.999-1.969h4.013c-.054-.604-.208-1.059-.46-1.36-.389-.47-.892-.704-1.509-.704-.56 0-1.03.188-1.41.562-.383.374-.594.875-.634 1.502Zm6.787 4.283v-7.187h1.097v1.021c.528-.789 1.29-1.184 2.287-1.184.434 0 .831.077 1.194.233.363.155.635.359.815.612.18.253.307.553.38.899.044.226.067.621.067 1.185v4.419h-1.219v-4.371c0-.497-.047-.867-.142-1.113a1.175 1.175 0 0 0-.504-.589 1.613 1.613 0 0 0-.85-.22c-.519 0-.967.164-1.344.493-.376.33-.564.955-.564 1.875v3.925h-1.217v.002Zm12.628-2.314 1.259.156c-.198.735-.566 1.306-1.103 1.712-.537.405-1.223.608-2.058.608-1.05 0-1.885-.323-2.5-.971-.616-.647-.924-1.556-.924-2.724 0-1.209.311-2.147.934-2.815.622-.667 1.43-1.001 2.423-1.001.961 0 1.746.327 2.354.98.609.654.914 1.575.914 2.762 0 .072-.003.18-.007.324h-5.359c.045.79.268 1.395.67 1.813.401.42.901.63 1.502.63.446 0 .828-.117 1.144-.353.315-.232.566-.606.751-1.121Zm-3.999-1.969h4.013c-.054-.604-.208-1.059-.46-1.36-.389-.47-.892-.704-1.509-.704-.56 0-1.03.188-1.41.562-.383.374-.594.875-.634 1.502Zm6.773 4.283v-7.187h1.096v1.09c.28-.51.538-.847.775-1.009.236-.162.497-.243.781-.243.41 0 .828.131 1.252.393l-.42 1.13a1.744 1.744 0 0 0-.893-.264c-.267 0-.506.08-.718.24-.212.16-.363.382-.453.666a4.729 4.729 0 0 0-.203 1.421v3.763h-1.217Zm9.318-.886c-.451.384-.886.654-1.303.812a3.787 3.787 0 0 1-1.344.236c-.789 0-1.396-.192-1.82-.578-.424-.386-.636-.879-.636-1.479 0-.353.08-.674.24-.965.16-.291.37-.524.629-.7a2.96 2.96 0 0 1 .877-.399c.238-.062.6-.124 1.082-.183.983-.117 1.708-.257 2.173-.419l.007-.318c0-.496-.115-.846-.346-1.049-.312-.275-.773-.413-1.387-.413-.573 0-.996.101-1.27.301-.272.201-.475.557-.605 1.066l-1.19-.162c.107-.51.286-.922.534-1.235.248-.313.606-.555 1.076-.725.469-.169 1.013-.253 1.631-.253.613 0 1.111.072 1.495.216.384.145.666.326.846.545.181.219.307.495.379.829.041.208.062.582.062 1.123v1.624c0 1.133.025 1.849.077 2.148.053.301.155.588.309.863h-1.272a2.571 2.571 0 0 1-.244-.885Zm-.101-2.72c-.442.18-1.105.334-1.99.46-.5.072-.854.153-1.062.243a1.071 1.071 0 0 0-.48.396 1.045 1.045 0 0 0-.169.578c0 .325.123.596.369.812.246.216.605.324 1.079.324.47 0 .887-.103 1.252-.308a1.9 1.9 0 0 0 .806-.843c.131-.274.196-.681.196-1.218l-.001-.444Zm5.779 2.516.176 1.076a4.525 4.525 0 0 1-.92.108c-.442 0-.785-.07-1.029-.21a1.172 1.172 0 0 1-.514-.552c-.1-.228-.149-.707-.149-1.438v-4.135h-.894v-.947h.894v-1.78l1.212-.73v2.511h1.225v.947h-1.225v4.202c0 .348.021.571.063.67.043.1.113.179.21.237.097.058.235.088.416.088.136 0 .313-.015.535-.047Zm1.197-7.43v-1.401h1.219v1.401h-1.219Zm0 8.519v-7.187h1.219v7.187h-1.219Zm2.62-3.592c0-1.33.37-2.316 1.11-2.957.617-.532 1.371-.798 2.26-.798.988 0 1.796.323 2.423.971.627.648.94 1.542.94 2.684 0 .925-.139 1.652-.416 2.182-.277.53-.682.942-1.212 1.235a3.523 3.523 0 0 1-1.735.439c-1.006 0-1.819-.322-2.439-.968-.621-.645-.931-1.574-.931-2.788Zm1.251 0c0 .921.201 1.61.603 2.067a1.93 1.93 0 0 0 1.516.688c.604 0 1.107-.23 1.509-.69.402-.46.603-1.162.603-2.104 0-.889-.202-1.562-.605-2.021a1.93 1.93 0 0 0-1.506-.687c-.609 0-1.114.228-1.516.684-.402.456-.604 1.143-.604 2.063Zm6.909 3.593v-7.187h1.097v1.021c.528-.789 1.29-1.184 2.287-1.184.434 0 .831.077 1.194.233.363.155.635.359.815.612.18.253.307.553.379.899.045.226.068.621.068 1.185v4.419h-1.219v-4.371c0-.497-.047-.867-.142-1.113a1.175 1.175 0 0 0-.504-.589 1.613 1.613 0 0 0-.85-.22c-.519 0-.967.164-1.344.493-.376.33-.564.955-.564 1.875v3.925h-1.217v.002Zm7.891-.001v-9.921h7.173v1.171h-5.86v3.039h5.488v1.163h-5.488v3.377h6.09v1.171h-7.403Zm15.726-9.92h1.312v5.732c0 .997-.112 1.788-.338 2.375-.226.586-.633 1.063-1.222 1.431-.589.368-1.361.552-2.317.552-.93 0-1.689-.16-2.281-.48a2.734 2.734 0 0 1-1.265-1.391c-.253-.606-.379-1.436-.379-2.486v-5.732h1.312v5.726c0 .861.08 1.496.24 1.904.16.409.436.724.825.944.391.221.867.332 1.432.332.965 0 1.653-.219 2.063-.657.411-.438.616-1.278.616-2.523v-5.727h.002Z"/>
    <path fill="#004494" d="M55.757 137.122v-11.574h7.934v1.958h-5.597v2.74h4.831v1.957h-4.83v4.919h-2.338Zm15.363 0v-1.255a3.23 3.23 0 0 1-1.203 1.058 3.368 3.368 0 0 1-1.574.387 3.09 3.09 0 0 1-1.517-.371 2.187 2.187 0 0 1-.971-1.042c-.2-.447-.3-1.065-.3-1.855v-5.306h2.219v3.854c0 1.179.04 1.901.122 2.167.08.266.23.477.446.631.216.156.489.233.82.233.379 0 .719-.104 1.019-.312.3-.208.506-.466.616-.774.11-.308.166-1.062.166-2.262v-3.537h2.218v8.385h-2.06v-.001Zm11.985 0h-2.22v-4.279c0-.905-.046-1.49-.141-1.756a1.229 1.229 0 0 0-.462-.62 1.326 1.326 0 0 0-.771-.221c-.384 0-.73.104-1.034.315a1.59 1.59 0 0 0-.627.837c-.113.348-.17.989-.17 1.926v3.798h-2.22v-8.385h2.062v1.232c.73-.948 1.653-1.422 2.764-1.422.489 0 .937.089 1.342.265.405.177.712.401.92.675.208.274.353.585.435.932.08.348.122.845.122 1.492v5.211Zm9.94 0h-2.061v-1.231c-.343.479-.746.836-1.212 1.069a3.115 3.115 0 0 1-1.41.352c-.963 0-1.788-.388-2.475-1.164-.687-.776-1.03-1.859-1.03-3.249 0-1.421.334-2.501 1.003-3.241.668-.739 1.513-1.109 2.534-1.109.937 0 1.747.39 2.432 1.169v-4.169h2.219v11.573Zm-5.921-4.374c0 .896.124 1.543.37 1.942.359.579.859.868 1.5.868.512 0 .946-.217 1.304-.651.358-.434.537-1.082.537-1.945 0-.964-.174-1.657-.521-2.081a1.65 1.65 0 0 0-1.334-.635c-.526 0-.967.209-1.322.627-.357.419-.534 1.044-.534 1.875Zm12.962 1.705 2.211.371c-.284.811-.733 1.428-1.346 1.852-.613.424-1.381.636-2.302.636-1.458 0-2.537-.477-3.237-1.429-.553-.764-.829-1.727-.829-2.89 0-1.39.363-2.478 1.09-3.265.727-.787 1.645-1.181 2.756-1.181 1.247 0 2.231.412 2.952 1.236.721.823 1.065 2.085 1.034 3.785h-5.558c.016.658.194 1.17.537 1.535.342.366.768.549 1.278.549.348 0 .64-.095.877-.284.238-.188.416-.493.537-.915Zm.127-2.241c-.017-.643-.182-1.131-.498-1.465a1.525 1.525 0 0 0-1.152-.501c-.484 0-.884.176-1.2.528-.315.353-.471.832-.466 1.438h3.316Zm11.701 4.91h-2.061v-1.231c-.343.479-.746.836-1.212 1.069a3.115 3.115 0 0 1-1.409.352c-.964 0-1.789-.388-2.476-1.164-.687-.776-1.03-1.859-1.03-3.249 0-1.421.334-2.501 1.003-3.241.668-.739 1.513-1.109 2.534-1.109.937 0 1.747.39 2.432 1.169v-4.169h2.219v11.573Zm-5.922-4.374c0 .896.124 1.543.371 1.942.358.579.858.868 1.5.868.511 0 .945-.217 1.303-.651.358-.434.537-1.082.537-1.945 0-.964-.174-1.657-.521-2.081a1.65 1.65 0 0 0-1.334-.635c-.526 0-.967.209-1.322.627-.357.419-.534 1.044-.534 1.875Zm12.506 4.374v-11.574h2.219v4.169c.685-.779 1.495-1.169 2.432-1.169 1.021 0 1.866.37 2.534 1.109.669.74 1.003 1.802 1.003 3.186 0 1.432-.341 2.534-1.022 3.309-.682.773-1.51 1.16-2.483 1.16-.479 0-.951-.12-1.417-.359a3.379 3.379 0 0 1-1.204-1.062v1.231h-2.062Zm2.203-4.374c0 .869.137 1.511.41 1.927.385.59.895.884 1.532.884.489 0 .906-.209 1.251-.627.345-.419.518-1.078.518-1.979 0-.957-.174-1.648-.521-2.072a1.65 1.65 0 0 0-1.334-.635 1.67 1.67 0 0 0-1.326.619c-.355.413-.53 1.041-.53 1.883Zm6.717-4.011h2.36l2.006 5.953 1.958-5.953h2.297l-2.96 8.069-.529 1.46c-.194.489-.38.863-.557 1.121a2.46 2.46 0 0 1-.607.628c-.229.16-.511.285-.845.375a4.416 4.416 0 0 1-1.134.134c-.426 0-.845-.045-1.255-.134l-.197-1.737c.348.068.66.103.939.103.516 0 .897-.151 1.145-.453.247-.303.437-.688.568-1.157l-3.189-8.409ZM25.883 144.906v1.769h-1.516v3.379c0 .685.015 1.083.044 1.196a.483.483 0 0 0 .197.28c.103.074.228.11.375.11.205 0 .502-.07.892-.213l.189 1.721c-.516.222-1.1.332-1.752.332-.4 0-.761-.067-1.082-.201-.321-.135-.557-.308-.706-.521-.15-.213-.255-.501-.312-.864-.047-.258-.071-.778-.071-1.563v-3.655h-1.018v-1.769h1.018v-1.665l2.227-1.295v2.96l1.515-.001Zm3.751-3.189v4.256c.716-.837 1.571-1.256 2.565-1.256.511 0 .972.095 1.382.284.411.189.72.432.928.727.208.295.35.621.427.979.076.357.114.913.114 1.665v4.919h-2.219v-4.429c0-.879-.042-1.438-.126-1.674a1.094 1.094 0 0 0-.446-.564c-.213-.139-.48-.209-.802-.209-.368 0-.697.089-.986.268-.29.18-.501.449-.636.81-.134.36-.201.894-.201 1.599v4.2h-2.219v-11.574h2.219v-.001Zm12.521 8.905 2.211.371c-.284.811-.733 1.428-1.346 1.852-.613.424-1.38.636-2.302.636-1.458 0-2.537-.477-3.237-1.429-.553-.764-.829-1.727-.829-2.89 0-1.39.363-2.478 1.09-3.265.727-.787 1.645-1.181 2.756-1.181 1.247 0 2.231.412 2.952 1.236.721.823 1.065 2.085 1.034 3.785h-5.558c.016.658.194 1.17.537 1.535.342.366.768.549 1.278.549.348 0 .64-.095.877-.284.237-.188.416-.493.537-.915Zm.127-2.241c-.017-.643-.182-1.131-.498-1.465a1.525 1.525 0 0 0-1.152-.501c-.484 0-.884.176-1.2.528-.315.353-.47.832-.466 1.438h3.316Zm8.518 4.91v-11.574h8.581v1.958h-6.244v2.566h5.811v1.95h-5.81v3.149h6.465v1.95H50.8v.001Zm16.286 0v-1.255a3.23 3.23 0 0 1-1.204 1.058 3.368 3.368 0 0 1-1.574.387 3.09 3.09 0 0 1-1.517-.371 2.187 2.187 0 0 1-.971-1.042c-.2-.447-.3-1.065-.3-1.855v-5.306h2.219v3.854c0 1.179.04 1.901.122 2.167.081.266.23.477.446.631.216.156.489.233.82.233.379 0 .719-.104 1.019-.312.301-.208.506-.466.616-.774.11-.308.166-1.062.166-2.262v-3.537h2.218v8.385h-2.06v-.001Zm6.484 0h-2.22v-8.385h2.061v1.192c.353-.562.67-.934.952-1.113.281-.179.601-.269.96-.269.504 0 .991.14 1.46.419l-.688 1.935c-.374-.242-.72-.363-1.042-.363-.31 0-.574.085-.789.256-.217.172-.386.48-.51.928-.124.448-.186 1.385-.186 2.811l.001 2.589Zm3.654-4.311c0-.737.182-1.45.545-2.14a3.732 3.732 0 0 1 1.543-1.579c.666-.363 1.41-.545 2.23-.545 1.27 0 2.308.412 3.118 1.236.811.823 1.216 1.864 1.216 3.122 0 1.269-.409 2.319-1.228 3.154-.818.834-1.849 1.251-3.09 1.251a4.868 4.868 0 0 1-2.199-.521 3.573 3.573 0 0 1-1.59-1.527c-.364-.671-.545-1.488-.545-2.451Zm2.274.119c0 .832.197 1.469.593 1.911.395.441.881.663 1.46.663.58 0 1.064-.222 1.457-.663.392-.442.588-1.085.588-1.927 0-.821-.196-1.452-.588-1.895-.393-.442-.878-.663-1.457-.663-.579 0-1.065.221-1.46.663-.396.443-.593 1.08-.593 1.911Zm8.053-4.193h2.068v1.232a3.087 3.087 0 0 1 1.089-1.026 2.997 2.997 0 0 1 1.524-.396c.974 0 1.8.382 2.479 1.146.679.763 1.019 1.826 1.019 3.189 0 1.399-.342 2.488-1.026 3.265-.684.777-1.513 1.164-2.486 1.164-.464 0-.884-.092-1.26-.276-.376-.184-.772-.5-1.188-.947v4.224h-2.218l-.001-11.575Zm2.195 4.051c0 .942.187 1.638.561 2.088.374.45.829.675 1.366.675.516 0 .944-.206 1.286-.619.343-.413.514-1.091.514-2.033 0-.879-.177-1.531-.529-1.958-.352-.427-.789-.64-1.311-.64a1.7 1.7 0 0 0-1.35.628c-.359.418-.537 1.038-.537 1.859Zm12.599 1.665 2.211.371c-.284.811-.733 1.428-1.346 1.852-.613.424-1.381.636-2.302.636-1.458 0-2.537-.477-3.237-1.429-.553-.764-.829-1.727-.829-2.89 0-1.39.363-2.478 1.09-3.265.727-.787 1.645-1.181 2.756-1.181 1.247 0 2.231.412 2.952 1.236.721.823 1.065 2.085 1.034 3.785h-5.558c.016.658.194 1.17.537 1.535.342.366.768.549 1.278.549.348 0 .64-.095.877-.284.237-.188.416-.493.537-.915Zm.127-2.241c-.017-.643-.182-1.131-.498-1.465a1.525 1.525 0 0 0-1.152-.501c-.484 0-.884.176-1.2.528-.315.353-.471.832-.466 1.438h3.316Zm5.668-.916-2.013-.363c.226-.811.615-1.41 1.168-1.8.553-.39 1.374-.585 2.463-.585.99 0 1.727.117 2.211.352.484.235.825.532 1.022.893.197.361.296 1.022.296 1.985l-.023 2.59c0 .736.035 1.28.106 1.63.071.35.204.725.398 1.125h-2.194a7.666 7.666 0 0 1-.213-.655 3.884 3.884 0 0 0-.079-.261 3.982 3.982 0 0 1-1.216.829 3.49 3.49 0 0 1-1.382.276c-.863 0-1.544-.234-2.041-.702-.497-.469-.746-1.061-.746-1.776 0-.475.113-.896.34-1.268a2.22 2.22 0 0 1 .951-.853c.408-.198.996-.37 1.765-.518 1.036-.194 1.755-.376 2.155-.544v-.222c0-.426-.105-.73-.316-.912-.21-.181-.607-.271-1.191-.271-.396 0-.703.077-.924.232-.221.156-.4.428-.537.818Zm2.969 1.8c-.284.095-.734.208-1.351.34-.615.131-1.018.26-1.208.387-.289.205-.434.466-.434.781 0 .311.115.579.348.806.231.226.525.339.884.339.4 0 .781-.131 1.145-.395.269-.2.445-.444.529-.734.058-.189.087-.55.087-1.081v-.443Zm11.992 4.026h-2.219v-4.279c0-.905-.047-1.49-.142-1.756a1.229 1.229 0 0 0-.462-.62 1.326 1.326 0 0 0-.771-.221c-.384 0-.729.104-1.034.315a1.59 1.59 0 0 0-.627.837c-.113.348-.17.989-.17 1.926v3.798h-2.219v-8.385h2.061v1.232c.731-.948 1.653-1.422 2.764-1.422.489 0 .937.089 1.342.265.405.177.712.401.92.675.208.274.353.585.435.932.081.348.122.845.122 1.492v5.211Zm6.742-11.574h2.337v6.269c0 .995.029 1.64.087 1.935.101.474.339.854.715 1.141.376.287.891.431 1.543.431.663 0 1.163-.136 1.5-.407.337-.271.54-.604.608-.998.068-.394.103-1.05.103-1.966v-6.403h2.337v6.079c0 1.39-.063 2.371-.189 2.945-.126.573-.359 1.058-.698 1.452-.34.395-.794.71-1.362.943-.568.234-1.311.352-2.227.352-1.105 0-1.943-.128-2.515-.383-.572-.255-1.022-.587-1.354-.995a3.173 3.173 0 0 1-.655-1.282c-.153-.663-.229-1.643-.229-2.938l-.001-6.175Zm19.303 11.574h-2.219v-4.279c0-.905-.047-1.49-.142-1.756a1.229 1.229 0 0 0-.462-.62 1.326 1.326 0 0 0-.771-.221c-.384 0-.729.104-1.034.315a1.59 1.59 0 0 0-.627.837c-.113.348-.17.989-.17 1.926v3.798h-2.219v-8.385h2.061v1.232c.731-.948 1.653-1.422 2.764-1.422.489 0 .937.089 1.342.265.405.177.712.401.92.675.208.274.353.585.435.932.081.348.122.845.122 1.492v5.211Zm2.25-9.521v-2.053h2.219v2.053h-2.219Zm0 9.521v-8.385h2.219v8.385h-2.219Zm3.98-4.311c0-.737.182-1.45.545-2.14a3.732 3.732 0 0 1 1.543-1.579c.666-.363 1.409-.545 2.23-.545 1.269 0 2.308.412 3.118 1.236.811.823 1.216 1.864 1.216 3.122 0 1.269-.409 2.319-1.228 3.154-.818.834-1.849 1.251-3.091 1.251a4.868 4.868 0 0 1-2.198-.521 3.573 3.573 0 0 1-1.591-1.527c-.363-.671-.544-1.488-.544-2.451Zm2.273.119c0 .832.197 1.469.593 1.911.395.441.881.663 1.46.663s1.064-.222 1.457-.663c.392-.442.588-1.085.588-1.927 0-.821-.196-1.452-.588-1.895-.393-.442-.878-.663-1.457-.663-.579 0-1.065.221-1.46.663-.396.443-.593 1.08-.593 1.911Zm15.742 4.192h-2.219v-4.279c0-.905-.047-1.49-.142-1.756a1.229 1.229 0 0 0-.462-.62 1.326 1.326 0 0 0-.771-.221c-.384 0-.729.104-1.034.315a1.59 1.59 0 0 0-.627.837c-.113.348-.17.989-.17 1.926v3.798h-2.219v-8.385h2.061v1.232c.731-.948 1.653-1.422 2.764-1.422.489 0 .937.089 1.342.265.405.177.712.401.92.675.208.274.353.585.435.932.081.348.122.845.122 1.492v5.211Z"/>
    <path fill="#004494" d="M55.757 137.122v-11.574h7.934v1.958h-5.597v2.74h4.831v1.957h-4.83v4.919h-2.338Zm15.363 0v-1.255a3.23 3.23 0 0 1-1.203 1.058 3.368 3.368 0 0 1-1.574.387 3.09 3.09 0 0 1-1.517-.371 2.187 2.187 0 0 1-.971-1.042c-.2-.447-.3-1.065-.3-1.855v-5.306h2.219v3.854c0 1.179.04 1.901.122 2.167.08.266.23.477.446.631.216.156.489.233.82.233.379 0 .719-.104 1.019-.312.3-.208.506-.466.616-.774.11-.308.166-1.062.166-2.262v-3.537h2.218v8.385h-2.06v-.001Zm11.985 0h-2.22v-4.279c0-.905-.046-1.49-.141-1.756a1.229 1.229 0 0 0-.462-.62 1.326 1.326 0 0 0-.771-.221c-.384 0-.73.104-1.034.315a1.59 1.59 0 0 0-.627.837c-.113.348-.17.989-.17 1.926v3.798h-2.22v-8.385h2.062v1.232c.73-.948 1.653-1.422 2.764-1.422.489 0 .937.089 1.342.265.405.177.712.401.92.675.208.274.353.585.435.932.08.348.122.845.122 1.492v5.211Zm9.94 0h-2.061v-1.231c-.343.479-.746.836-1.212 1.069a3.115 3.115 0 0 1-1.41.352c-.963 0-1.788-.388-2.475-1.164-.687-.776-1.03-1.859-1.03-3.249 0-1.421.334-2.501 1.003-3.241.668-.739 1.513-1.109 2.534-1.109.937 0 1.747.39 2.432 1.169v-4.169h2.219v11.573Zm-5.921-4.374c0 .896.124 1.543.37 1.942.359.579.859.868 1.5.868.512 0 .946-.217 1.304-.651.358-.434.537-1.082.537-1.945 0-.964-.174-1.657-.521-2.081a1.65 1.65 0 0 0-1.334-.635c-.526 0-.967.209-1.322.627-.357.419-.534 1.044-.534 1.875Zm12.962 1.705 2.211.371c-.284.811-.733 1.428-1.346 1.852-.613.424-1.381.636-2.302.636-1.458 0-2.537-.477-3.237-1.429-.553-.764-.829-1.727-.829-2.89 0-1.39.363-2.478 1.09-3.265.727-.787 1.645-1.181 2.756-1.181 1.247 0 2.231.412 2.952 1.236.721.823 1.065 2.085 1.034 3.785h-5.558c.016.658.194 1.17.537 1.535.342.366.768.549 1.278.549.348 0 .64-.095.877-.284.238-.188.416-.493.537-.915Zm.127-2.241c-.017-.643-.182-1.131-.498-1.465a1.525 1.525 0 0 0-1.152-.501c-.484 0-.884.176-1.2.528-.315.353-.471.832-.466 1.438h3.316Zm11.701 4.91h-2.061v-1.231c-.343.479-.746.836-1.212 1.069a3.115 3.115 0 0 1-1.409.352c-.964 0-1.789-.388-2.476-1.164-.687-.776-1.03-1.859-1.03-3.249 0-1.421.334-2.501 1.003-3.241.668-.739 1.513-1.109 2.534-1.109.937 0 1.747.39 2.432 1.169v-4.169h2.219v11.573Zm-5.922-4.374c0 .896.124 1.543.371 1.942.358.579.858.868 1.5.868.511 0 .945-.217 1.303-.651.358-.434.537-1.082.537-1.945 0-.964-.174-1.657-.521-2.081a1.65 1.65 0 0 0-1.334-.635c-.526 0-.967.209-1.322.627-.357.419-.534 1.044-.534 1.875Zm12.506 4.374v-11.574h2.219v4.169c.685-.779 1.495-1.169 2.432-1.169 1.021 0 1.866.37 2.534 1.109.669.74 1.003 1.802 1.003 3.186 0 1.432-.341 2.534-1.022 3.309-.682.773-1.51 1.16-2.483 1.16-.479 0-.951-.12-1.417-.359a3.379 3.379 0 0 1-1.204-1.062v1.231h-2.062Zm2.203-4.374c0 .869.137 1.511.41 1.927.385.59.895.884 1.532.884.489 0 .906-.209 1.251-.627.345-.419.518-1.078.518-1.979 0-.957-.174-1.648-.521-2.072a1.65 1.65 0 0 0-1.334-.635 1.67 1.67 0 0 0-1.326.619c-.355.413-.53 1.041-.53 1.883Zm6.717-4.011h2.36l2.006 5.953 1.958-5.953h2.297l-2.96 8.069-.529 1.46c-.194.489-.38.863-.557 1.121a2.46 2.46 0 0 1-.607.628c-.229.16-.511.285-.845.375a4.416 4.416 0 0 1-1.134.134c-.426 0-.845-.045-1.255-.134l-.197-1.737c.348.068.66.103.939.103.516 0 .897-.151 1.145-.453.247-.303.437-.688.568-1.157l-3.189-8.409ZM25.883 144.906v1.769h-1.516v3.379c0 .685.015 1.083.044 1.196a.483.483 0 0 0 .197.28c.103.074.228.11.375.11.205 0 .502-.07.892-.213l.189 1.721c-.516.222-1.1.332-1.752.332-.4 0-.761-.067-1.082-.201-.321-.135-.557-.308-.706-.521-.15-.213-.255-.501-.312-.864-.047-.258-.071-.778-.071-1.563v-3.655h-1.018v-1.769h1.018v-1.665l2.227-1.295v2.96l1.515-.001Zm3.751-3.189v4.256c.716-.837 1.571-1.256 2.565-1.256.511 0 .972.095 1.382.284.411.189.72.432.928.727.208.295.35.621.427.979.076.357.114.913.114 1.665v4.919h-2.219v-4.429c0-.879-.042-1.438-.126-1.674a1.094 1.094 0 0 0-.446-.564c-.213-.139-.48-.209-.802-.209-.368 0-.697.089-.986.268-.29.18-.501.449-.636.81-.134.36-.201.894-.201 1.599v4.2h-2.219v-11.574h2.219v-.001Zm12.521 8.905 2.211.371c-.284.811-.733 1.428-1.346 1.852-.613.424-1.38.636-2.302.636-1.458 0-2.537-.477-3.237-1.429-.553-.764-.829-1.727-.829-2.89 0-1.39.363-2.478 1.09-3.265.727-.787 1.645-1.181 2.756-1.181 1.247 0 2.231.412 2.952 1.236.721.823 1.065 2.085 1.034 3.785h-5.558c.016.658.194 1.17.537 1.535.342.366.768.549 1.278.549.348 0 .64-.095.877-.284.237-.188.416-.493.537-.915Zm.127-2.241c-.017-.643-.182-1.131-.498-1.465a1.525 1.525 0 0 0-1.152-.501c-.484 0-.884.176-1.2.528-.315.353-.47.832-.466 1.438h3.316Zm8.518 4.91v-11.574h8.581v1.958h-6.244v2.566h5.811v1.95h-5.81v3.149h6.465v1.95H50.8v.001Zm16.286 0v-1.255a3.23 3.23 0 0 1-1.204 1.058 3.368 3.368 0 0 1-1.574.387 3.09 3.09 0 0 1-1.517-.371 2.187 2.187 0 0 1-.971-1.042c-.2-.447-.3-1.065-.3-1.855v-5.306h2.219v3.854c0 1.179.04 1.901.122 2.167.081.266.23.477.446.631.216.156.489.233.82.233.379 0 .719-.104 1.019-.312.301-.208.506-.466.616-.774.11-.308.166-1.062.166-2.262v-3.537h2.218v8.385h-2.06v-.001Zm6.484 0h-2.22v-8.385h2.061v1.192c.353-.562.67-.934.952-1.113.281-.179.601-.269.96-.269.504 0 .991.14 1.46.419l-.688 1.935c-.374-.242-.72-.363-1.042-.363-.31 0-.574.085-.789.256-.217.172-.386.48-.51.928-.124.448-.186 1.385-.186 2.811l.001 2.589Zm3.654-4.311c0-.737.182-1.45.545-2.14a3.732 3.732 0 0 1 1.543-1.579c.666-.363 1.41-.545 2.23-.545 1.27 0 2.308.412 3.118 1.236.811.823 1.216 1.864 1.216 3.122 0 1.269-.409 2.319-1.228 3.154-.818.834-1.849 1.251-3.09 1.251a4.868 4.868 0 0 1-2.199-.521 3.573 3.573 0 0 1-1.59-1.527c-.364-.671-.545-1.488-.545-2.451Zm2.274.119c0 .832.197 1.469.593 1.911.395.441.881.663 1.46.663.58 0 1.064-.222 1.457-.663.392-.442.588-1.085.588-1.927 0-.821-.196-1.452-.588-1.895-.393-.442-.878-.663-1.457-.663-.579 0-1.065.221-1.46.663-.396.443-.593 1.08-.593 1.911Zm8.053-4.193h2.068v1.232a3.087 3.087 0 0 1 1.089-1.026 2.997 2.997 0 0 1 1.524-.396c.974 0 1.8.382 2.479 1.146.679.763 1.019 1.826 1.019 3.189 0 1.399-.342 2.488-1.026 3.265-.684.777-1.513 1.164-2.486 1.164-.464 0-.884-.092-1.26-.276-.376-.184-.772-.5-1.188-.947v4.224h-2.218l-.001-11.575Zm2.195 4.051c0 .942.187 1.638.561 2.088.374.45.829.675 1.366.675.516 0 .944-.206 1.286-.619.343-.413.514-1.091.514-2.033 0-.879-.177-1.531-.529-1.958-.352-.427-.789-.64-1.311-.64a1.7 1.7 0 0 0-1.35.628c-.359.418-.537 1.038-.537 1.859Zm12.599 1.665 2.211.371c-.284.811-.733 1.428-1.346 1.852-.613.424-1.381.636-2.302.636-1.458 0-2.537-.477-3.237-1.429-.553-.764-.829-1.727-.829-2.89 0-1.39.363-2.478 1.09-3.265.727-.787 1.645-1.181 2.756-1.181 1.247 0 2.231.412 2.952 1.236.721.823 1.065 2.085 1.034 3.785h-5.558c.016.658.194 1.17.537 1.535.342.366.768.549 1.278.549.348 0 .64-.095.877-.284.237-.188.416-.493.537-.915Zm.127-2.241c-.017-.643-.182-1.131-.498-1.465a1.525 1.525 0 0 0-1.152-.501c-.484 0-.884.176-1.2.528-.315.353-.471.832-.466 1.438h3.316Zm5.668-.916-2.013-.363c.226-.811.615-1.41 1.168-1.8.553-.39 1.374-.585 2.463-.585.99 0 1.727.117 2.211.352.484.235.825.532 1.022.893.197.361.296 1.022.296 1.985l-.023 2.59c0 .736.035 1.28.106 1.63.071.35.204.725.398 1.125h-2.194a7.666 7.666 0 0 1-.213-.655 3.884 3.884 0 0 0-.079-.261 3.982 3.982 0 0 1-1.216.829 3.49 3.49 0 0 1-1.382.276c-.863 0-1.544-.234-2.041-.702-.497-.469-.746-1.061-.746-1.776 0-.475.113-.896.34-1.268a2.22 2.22 0 0 1 .951-.853c.408-.198.996-.37 1.765-.518 1.036-.194 1.755-.376 2.155-.544v-.222c0-.426-.105-.73-.316-.912-.21-.181-.607-.271-1.191-.271-.396 0-.703.077-.924.232-.221.156-.4.428-.537.818Zm2.969 1.8c-.284.095-.734.208-1.351.34-.615.131-1.018.26-1.208.387-.289.205-.434.466-.434.781 0 .311.115.579.348.806.231.226.525.339.884.339.4 0 .781-.131 1.145-.395.269-.2.445-.444.529-.734.058-.189.087-.55.087-1.081v-.443Zm11.992 4.026h-2.219v-4.279c0-.905-.047-1.49-.142-1.756a1.229 1.229 0 0 0-.462-.62 1.326 1.326 0 0 0-.771-.221c-.384 0-.729.104-1.034.315a1.59 1.59 0 0 0-.627.837c-.113.348-.17.989-.17 1.926v3.798h-2.219v-8.385h2.061v1.232c.731-.948 1.653-1.422 2.764-1.422.489 0 .937.089 1.342.265.405.177.712.401.92.675.208.274.353.585.435.932.081.348.122.845.122 1.492v5.211Zm6.742-11.574h2.337v6.269c0 .995.029 1.64.087 1.935.101.474.339.854.715 1.141.376.287.891.431 1.543.431.663 0 1.163-.136 1.5-.407.337-.271.54-.604.608-.998.068-.394.103-1.05.103-1.966v-6.403h2.337v6.079c0 1.39-.063 2.371-.189 2.945-.126.573-.359 1.058-.698 1.452-.34.395-.794.71-1.362.943-.568.234-1.311.352-2.227.352-1.105 0-1.943-.128-2.515-.383-.572-.255-1.022-.587-1.354-.995a3.173 3.173 0 0 1-.655-1.282c-.153-.663-.229-1.643-.229-2.938l-.001-6.175Zm19.303 11.574h-2.219v-4.279c0-.905-.047-1.49-.142-1.756a1.229 1.229 0 0 0-.462-.62 1.326 1.326 0 0 0-.771-.221c-.384 0-.729.104-1.034.315a1.59 1.59 0 0 0-.627.837c-.113.348-.17.989-.17 1.926v3.798h-2.219v-8.385h2.061v1.232c.731-.948 1.653-1.422 2.764-1.422.489 0 .937.089 1.342.265.405.177.712.401.92.675.208.274.353.585.435.932.081.348.122.845.122 1.492v5.211Zm2.25-9.521v-2.053h2.219v2.053h-2.219Zm0 9.521v-8.385h2.219v8.385h-2.219Zm3.98-4.311c0-.737.182-1.45.545-2.14a3.732 3.732 0 0 1 1.543-1.579c.666-.363 1.409-.545 2.23-.545 1.269 0 2.308.412 3.118 1.236.811.823 1.216 1.864 1.216 3.122 0 1.269-.409 2.319-1.228 3.154-.818.834-1.849 1.251-3.091 1.251a4.868 4.868 0 0 1-2.198-.521 3.573 3.573 0 0 1-1.591-1.527c-.363-.671-.544-1.488-.544-2.451Zm2.273.119c0 .832.197 1.469.593 1.911.395.441.881.663 1.46.663s1.064-.222 1.457-.663c.392-.442.588-1.085.588-1.927 0-.821-.196-1.452-.588-1.895-.393-.442-.878-.663-1.457-.663-.579 0-1.065.221-1.46.663-.396.443-.593 1.08-.593 1.911Zm15.742 4.192h-2.219v-4.279c0-.905-.047-1.49-.142-1.756a1.229 1.229 0 0 0-.462-.62 1.326 1.326 0 0 0-.771-.221c-.384 0-.729.104-1.034.315a1.59 1.59 0 0 0-.627.837c-.113.348-.17.989-.17 1.926v3.798h-2.219v-8.385h2.061v1.232c.731-.948 1.653-1.422 2.764-1.422.489 0 .937.089 1.342.265.405.177.712.401.92.675.208.274.353.585.435.932.081.348.122.845.122 1.492v5.211Z"/>
    <path fill="#000" d="M197.811 22.618a1.983 1.983 0 0 0-1.065-.327c-.727 0-1.212.39-1.212 1.097 0 .664.464.906.844 1.117l.97.548c.917.517 1.55 1.001 1.55 2.024 0 1.233-.875 2.118-2.414 2.118-.97 0-1.771-.379-1.866-.443a29.366 29.366 0 0 1-.053-1.159c0-.38.106-.538.379-.538.095 0 .179.021.243.052l.253 1.128c.222.169.664.337 1.118.337.875 0 1.317-.474 1.317-1.149 0-.717-.485-.949-1.381-1.465l-.654-.379c-.706-.411-1.297-.896-1.297-1.95 0-1.223.991-1.961 2.33-1.961.938 0 1.433.253 1.697.4 0 0 .042.917.042 1.033 0 .327-.095.527-.369.527a.77.77 0 0 1-.232-.032l-.2-.978Zm6.746 5.86.77.106s.011.042.011.084c0 .19-.137.316-.39.337l-1.391.126v-.696h-.021a1.883 1.883 0 0 1-1.56.76c-1.128 0-1.655-.665-1.655-1.909v-2.688l-.749-.116s-.011-.063-.011-.105c0-.179.137-.306.39-.327l1.433-.137v3.321c0 .96.506 1.18.97 1.18.538 0 .896-.232 1.139-.506v-3.31l-.749-.116s-.011-.063-.011-.105c0-.179.137-.306.39-.327l1.433-.137v4.565h.001Zm3.024-3.879h.031c.243-.306.685-.75 1.539-.75 1.107 0 1.95.823 1.95 2.425 0 2.003-1.17 2.878-2.709 2.878-.306 0-.548-.042-.749-.095v1.55l.611.137c.105.022.147.053.147.137a.59.59 0 0 1-.105.295h-2.403s-.011-.063-.011-.095c0-.19.127-.284.327-.348l.369-.126v-6.01l-.748-.115s-.011-.063-.011-.105c0-.18.137-.306.39-.327l1.433-.137-.061.686Zm.064 3.658c.19.137.474.274.865.274.917 0 1.486-.622 1.486-2.108 0-1.212-.58-1.771-1.317-1.771a1.48 1.48 0 0 0-1.033.41l-.001 3.195Zm5.944-3.658h.031c.243-.306.685-.75 1.539-.75 1.107 0 1.95.823 1.95 2.425 0 2.003-1.17 2.878-2.709 2.878-.306 0-.548-.042-.749-.095v1.55l.611.137c.105.022.147.053.147.137a.59.59 0 0 1-.105.295h-2.403s-.011-.063-.011-.095c0-.19.127-.284.327-.348l.369-.126v-6.01l-.748-.115s-.011-.063-.011-.105c0-.18.137-.306.39-.327l1.433-.137-.061.686Zm.063 3.658c.19.137.474.274.865.274.917 0 1.486-.622 1.486-2.108 0-1.212-.58-1.771-1.317-1.771a1.48 1.48 0 0 0-1.033.41v3.195h-.001Zm9.36-1.782c0 1.824-1.275 2.72-2.561 2.72-1.318 0-2.403-.843-2.403-2.614 0-1.782 1.265-2.73 2.604-2.73 1.316 0 2.36.79 2.36 2.624Zm-3.837.043c0 1.413.569 2.045 1.349 2.045s1.36-.611 1.36-2.024c0-1.412-.58-2.066-1.36-2.066-.78 0-1.349.622-1.349 2.045Zm6.387-1.698h.032c.221-.357.611-.97 1.296-.97.495 0 .728.233.728.56a.906.906 0 0 1-.19.538 1.628 1.628 0 0 0-.706-.158c-.58 0-.875.232-1.096.538V28.5l.759.137c.106.02.148.053.148.137 0 .105-.084.263-.105.295h-2.551s-.011-.063-.011-.095c0-.19.127-.274.327-.348l.369-.127v-3.9l-.749-.116s-.011-.063-.011-.105c0-.18.137-.306.39-.327l1.433-.137-.063.906Zm5.702-.263h-1.444v3.078c0 .474.148.864.675.864.411 0 .749-.18.833-.253a.773.773 0 0 1 .095.348c0 .105-.369.6-1.328.6-.959 0-1.339-.558-1.339-1.37v-3.266h-.791s-.011-.064-.011-.095c0-.2.127-.316.327-.358l.516-.127.242-1.423h.78v1.423h1.56l-.115.579Zm1.897 1.982c.01 1.307.632 1.919 1.539 1.919.675 0 1.054-.263 1.318-.485.105.084.158.263.158.358 0 .263-.696.864-1.866.864-1.296 0-2.266-.738-2.266-2.572s1.107-2.772 2.309-2.772c1.191 0 1.792.728 1.792 1.782 0 .274-.053.643-.126.906h-2.858Zm1.845-.56c.021-.094.052-.273.052-.452 0-.58-.211-1.076-.822-1.076-.622 0-.991.495-1.065 1.528h1.835Zm6.66 2.499.769.106s.011.042.011.084c0 .189-.137.316-.39.337l-1.391.126v-.685h-.031c-.232.327-.675.748-1.497.748-1.033 0-2.003-.664-2.003-2.498 0-1.96 1.37-2.846 2.72-2.846.306 0 .569.053.749.095V22.1l-.749-.105s-.01-.074-.01-.116c0-.179.137-.306.39-.327l1.434-.137v7.063h-.002Zm-1.064-3.678c-.158-.148-.443-.316-.886-.316-.854 0-1.486.611-1.486 2.003 0 1.36.59 1.908 1.297 1.908.611 0 .938-.284 1.075-.443V24.8Zm6.218-.232h.032a1.919 1.919 0 0 1 1.528-.717c.991 0 1.94.664 1.94 2.477 0 2.034-1.349 2.867-2.783 2.867-.948 0-1.518-.242-1.792-.4v-6.693l-.738-.105s-.011-.074-.011-.116c0-.179.137-.306.39-.327l1.433-.137v3.151h.001Zm0 3.7c.19.137.485.284.917.284.917 0 1.486-.611 1.486-2.035 0-1.402-.685-1.845-1.36-1.845-.485 0-.822.19-1.044.432v3.164h.001Zm8.928-3.753-1.729 4.596c-.611 1.623-1.339 2.194-2.235 2.194-.495 0-.706-.232-.706-.59 0-.2.074-.349.148-.444.126.052.305.095.506.095.633 0 1.223-.294 1.571-1.128l-2.002-4.744-.506-.157s-.011-.073-.011-.105c0-.168.137-.253.295-.253h1.972c.084 0 .126.043.126.105a.893.893 0 0 1-.074.253l-.59.159 1.244 3.437h.032l1.202-3.427-.791-.169s-.01-.072-.01-.104c0-.169.137-.253.295-.253h1.708c.084 0 .126.043.126.105a.892.892 0 0 1-.073.253l-.498.177Zm1.896.632c-.37 0-.654-.253-.654-.643 0-.4.284-.654.654-.654.369 0 .663.253.663.654.001.39-.294.643-.663.643Zm0 4.059c-.37 0-.654-.253-.654-.643 0-.4.284-.653.654-.653.369 0 .663.253.663.653.001.39-.294.643-.663.643Zm-58.362 109.367c0 1.835-1.282 2.735-2.576 2.735-1.325 0-2.417-.848-2.417-2.628 0-1.792 1.272-2.746 2.618-2.746 1.325.001 2.375.795 2.375 2.639Zm-3.858.043c0 1.421.572 2.056 1.357 2.056.784 0 1.367-.614 1.367-2.035 0-1.421-.583-2.078-1.367-2.078-.785 0-1.357.626-1.357 2.057Zm9.803 1.993.626.137c.106.021.148.053.148.137 0 .106-.085.265-.106.297h-2.406s-.01-.064-.01-.096c0-.19.127-.286.328-.349l.35-.127v-2.682c0-.901-.509-1.177-1.028-1.177-.604 0-.996.286-1.219.466v3.393l.604.137c.106.021.149.053.149.137 0 .106-.085.265-.106.297h-2.406s-.011-.064-.011-.096c0-.19.127-.275.329-.349l.371-.127v-3.922l-.753-.117s-.011-.064-.011-.106c0-.18.138-.308.392-.328l1.441-.138-.064.742h.032c.286-.308.763-.805 1.738-.805 1.039 0 1.611.667 1.611 1.865v2.811h.001Zm6.762-3.965h-1.452v3.096c0 .477.149.869.678.869.414 0 .753-.181.837-.254a.78.78 0 0 1 .095.349c0 .106-.371.604-1.336.604-.964 0-1.346-.562-1.346-1.378v-3.286h-.795s-.011-.064-.011-.095c0-.201.128-.318.329-.36l.519-.128.244-1.43h.784v1.43h1.569l-.115.583Zm2.363.052h.021a2.066 2.066 0 0 1 1.632-.762c1.06 0 1.664.625 1.664 1.865v2.81l.614.137c.106.021.149.053.149.137 0 .106-.085.265-.106.297h-2.406s-.01-.064-.01-.096c0-.19.127-.286.328-.349l.35-.127v-2.682c0-.901-.488-1.177-1.028-1.177-.657 0-1.007.286-1.209.487v3.371l.594.137c.106.021.149.053.149.137a.601.601 0 0 1-.106.297h-2.406s-.011-.064-.011-.096c0-.19.128-.286.329-.349l.371-.127v-6.434l-.752-.106s-.011-.074-.011-.117c0-.18.138-.308.392-.328l1.452-.138v3.213Zm5.85 1.941c.01 1.314.636 1.929 1.547 1.929.678 0 1.06-.264 1.325-.487.106.085.159.265.159.361 0 .264-.7.868-1.876.868-1.304 0-2.279-.742-2.279-2.587 0-1.845 1.113-2.787 2.322-2.787 1.198 0 1.802.731 1.802 1.792 0 .275-.053.645-.127.911h-2.873Zm1.855-.562c.021-.095.053-.276.053-.455 0-.583-.212-1.081-.827-1.081-.626 0-.996.498-1.071 1.537h1.845v-.001Zm5.829-1.42h.032a1.93 1.93 0 0 1 1.537-.721c.996 0 1.951.667 1.951 2.491 0 2.046-1.357 2.883-2.799 2.883-.954 0-1.526-.244-1.802-.403v-6.73l-.742-.106s-.011-.074-.011-.117c0-.18.138-.308.392-.328l1.441-.138v3.169h.001Zm0 3.721c.191.137.488.286.923.286.922 0 1.494-.615 1.494-2.046 0-1.409-.689-1.855-1.367-1.855-.488 0-.827.191-1.05.435v3.18Zm8.193-.33c0 .424.159.551.339.551.244 0 .371-.127.403-.18.053.074.128.223.128.318 0 .138-.276.55-.965.55-.487 0-.795-.211-.89-.741h-.021c-.117.201-.509.763-1.389.763-.805 0-1.378-.55-1.378-1.388 0-1.135 1.24-1.558 2.428-1.558h.276v-.478c0-.964-.255-1.346-.912-1.346-.244 0-.456.073-.541.105-.096.201-.18.572-.233.933 0 0-.159.01-.244.01-.36 0-.562-.17-.562-.498 0-.658.869-1.155 1.855-1.155 1.166 0 1.706.636 1.706 1.833v2.281Zm-1.315-1.155c-.859.043-1.346.35-1.346.913 0 .444.255.741.689.741.435 0 .764-.286.901-.455v-1.208l-.244.009Zm5.173-2.173a1.267 1.267 0 0 0-.7-.212c-.35 0-.71.149-.71.593 0 .467.498.743 1.007 1.04.636.381 1.314.795 1.314 1.643 0 .868-.721 1.526-1.887 1.526-.594 0-1.123-.18-1.346-.318a5.115 5.115 0 0 1-.074-.816c0-.424.117-.594.435-.594.053 0 .138.01.138.01l.223.901c.106.073.413.212.721.212.519 0 .848-.201.848-.646 0-.455-.509-.71-.986-1.007-.647-.414-1.293-.827-1.293-1.739 0-.826.721-1.378 1.738-1.378.615 0 1.05.212 1.24.391.021.149.043.371.043.583 0 .371-.074.615-.456.615-.053 0-.127-.011-.127-.011l-.128-.793Zm3.529 3.891.626.137c.106.021.148.053.148.137 0 .106-.085.265-.106.297h-2.428s-.011-.064-.011-.096c0-.19.127-.275.329-.349l.371-.127v-3.922l-.753-.117s-.011-.064-.011-.106c0-.18.138-.308.392-.328l1.441-.138v4.612h.002Zm-.541-5.661c-.392 0-.689-.265-.689-.678 0-.404.296-.678.689-.678.382 0 .7.275.7.678 0 .413-.318.678-.7.678Zm4.473 1.77a1.267 1.267 0 0 0-.7-.212c-.35 0-.71.149-.71.593 0 .467.498.743 1.007 1.04.636.381 1.314.795 1.314 1.643 0 .868-.721 1.526-1.887 1.526-.594 0-1.123-.18-1.346-.318a5.115 5.115 0 0 1-.074-.816c0-.424.117-.594.435-.594.053 0 .138.01.138.01l.223.901c.106.073.413.212.721.212.519 0 .848-.201.848-.646 0-.455-.509-.71-.986-1.007-.646-.414-1.293-.827-1.293-1.739 0-.826.721-1.378 1.738-1.378.615 0 1.05.212 1.24.391.021.149.042.371.042.583 0 .371-.074.615-.455.615-.053 0-.128-.011-.128-.011l-.127-.793Zm9.147 1.855c0 1.835-1.282 2.735-2.576 2.735-1.325 0-2.417-.848-2.417-2.628 0-1.792 1.272-2.746 2.618-2.746 1.326.001 2.375.795 2.375 2.639Zm-3.858.043c0 1.421.572 2.056 1.357 2.056.784 0 1.368-.614 1.368-2.035 0-1.421-.583-2.078-1.368-2.078-.785 0-1.357.626-1.357 2.057Zm7.8-1.972h-1.294v3.965l.721.137c.106.021.149.053.149.137a.601.601 0 0 1-.106.297h-2.523s-.01-.064-.01-.096c0-.19.127-.275.328-.349l.36-.127v-3.965h-.784s-.011-.064-.011-.095c0-.201.128-.308.329-.36l.466-.128v-.105c0-1.707 1.039-2.533 1.951-2.533.53 0 .742.233.742.561 0 .265-.159.414-.318.499a1.037 1.037 0 0 0-.7-.307c-.455 0-.614.254-.614.879 0 .329.021 1.007.021 1.007h1.41l-.117.583Zm6.762 3.402c0 .424.159.551.34.551.244 0 .371-.127.403-.18.053.074.127.223.127.318 0 .138-.276.55-.964.55-.487 0-.795-.211-.89-.741h-.022c-.117.201-.509.763-1.389.763-.805 0-1.378-.55-1.378-1.388 0-1.135 1.24-1.558 2.428-1.558h.276v-.478c0-.964-.255-1.346-.912-1.346-.244 0-.456.073-.541.105-.095.201-.18.572-.233.933 0 0-.159.01-.244.01-.36 0-.562-.17-.562-.498 0-.658.869-1.155 1.855-1.155 1.166 0 1.706.636 1.706 1.833v2.281Zm-1.315-1.155c-.858.043-1.346.35-1.346.913 0 .444.254.741.689.741.435 0 .763-.286.901-.455v-1.208l-.244.009Zm9.614 1.696.773.106s.011.042.011.085c0 .19-.138.318-.392.339l-1.399.128v-.689h-.032c-.233.327-.678.752-1.505.752-1.039 0-2.014-.667-2.014-2.512 0-1.971 1.378-2.861 2.734-2.861a3.3 3.3 0 0 1 .753.095v-1.855l-.753-.106s-.01-.074-.01-.117c0-.18.137-.308.392-.328l1.441-.138v7.101h.001Zm-1.071-3.698c-.159-.149-.445-.318-.89-.318-.859 0-1.495.614-1.495 2.014 0 1.367.594 1.919 1.304 1.919.614 0 .944-.286 1.081-.445v-3.17Zm3.687 1.748c.01 1.314.636 1.929 1.548 1.929.678 0 1.059-.264 1.325-.487.105.085.159.265.159.361 0 .264-.7.868-1.876.868-1.304 0-2.279-.742-2.279-2.587 0-1.845 1.113-2.787 2.321-2.787 1.198 0 1.802.731 1.802 1.792 0 .275-.053.645-.127.911h-2.873Zm1.855-.562c.022-.095.054-.276.054-.455 0-.583-.213-1.081-.827-1.081-.626 0-.996.498-1.071 1.537h1.844v-.001Zm4.59-1.504c-.71 0-1.325.508-1.325 1.897 0 1.336.519 2.11 1.516 2.11.657 0 1.039-.339 1.208-.509a.626.626 0 0 1 .169.36c0 .265-.582.88-1.749.88-1.378 0-2.268-.868-2.268-2.619 0-1.792 1.198-2.755 2.629-2.755 1.166 0 1.462.572 1.462.879 0 .286-.137.551-.54.636-.159-.371-.402-.879-1.102-.879Zm4.133 4.038.625.137c.106.021.149.053.149.137 0 .106-.085.265-.106.297h-2.428s-.01-.064-.01-.096c0-.19.127-.275.328-.349l.372-.127v-3.922l-.753-.117s-.01-.064-.01-.106c0-.18.137-.308.391-.328l1.442-.138v4.612Zm-.541-5.661c-.392 0-.689-.265-.689-.678 0-.404.296-.678.689-.678.382 0 .7.275.7.678 0 .413-.318.678-.7.678Zm4.472 1.77a1.26 1.26 0 0 0-.699-.212c-.35 0-.71.149-.71.593 0 .467.499.743 1.007 1.04.636.381 1.314.795 1.314 1.643 0 .868-.721 1.526-1.887 1.526-.594 0-1.123-.18-1.346-.318a5.234 5.234 0 0 1-.074-.816c0-.424.117-.594.435-.594.054 0 .138.01.138.01l.222.901c.106.073.414.212.721.212.519 0 .849-.201.849-.646 0-.455-.509-.71-.986-1.007-.646-.414-1.293-.827-1.293-1.739 0-.826.721-1.378 1.738-1.378.615 0 1.049.212 1.24.391.022.149.042.371.042.583 0 .371-.074.615-.455.615-.053 0-.127-.011-.127-.011l-.129-.793Zm3.53 3.891.625.137c.106.021.149.053.149.137 0 .106-.085.265-.106.297h-2.428s-.01-.064-.01-.096c0-.19.127-.275.328-.349l.372-.127v-3.922l-.753-.117s-.01-.064-.01-.106c0-.18.137-.308.391-.328l1.442-.138v4.612Zm-.541-5.661c-.392 0-.689-.265-.689-.678 0-.404.296-.678.689-.678.382 0 .7.275.7.678 0 .413-.318.678-.7.678Zm6.985 3.625c0 1.835-1.282 2.735-2.575 2.735-1.325 0-2.417-.848-2.417-2.628 0-1.792 1.272-2.746 2.619-2.746 1.324.001 2.373.795 2.373 2.639Zm-3.858.043c0 1.421.572 2.056 1.357 2.056.784 0 1.367-.614 1.367-2.035 0-1.421-.583-2.078-1.367-2.078-.785 0-1.357.626-1.357 2.057Zm9.803 1.993.625.137c.106.021.149.053.149.137 0 .106-.085.265-.106.297h-2.406s-.01-.064-.01-.096c0-.19.127-.286.328-.349l.35-.127v-2.682c0-.901-.509-1.177-1.028-1.177-.604 0-.996.286-1.219.466v3.393l.604.137c.105.021.148.053.148.137 0 .106-.085.265-.105.297h-2.406s-.011-.064-.011-.096c0-.19.127-.275.328-.349l.372-.127v-3.922l-.753-.117s-.01-.064-.01-.106c0-.18.137-.308.391-.328l1.442-.138-.064.742h.032c.286-.308.763-.805 1.738-.805 1.039 0 1.612.667 1.612 1.865l-.001 2.811Zm-112.914 8.062h.032a1.93 1.93 0 0 1 1.537-.721c.996 0 1.951.667 1.951 2.491 0 2.046-1.357 2.883-2.799 2.883-.954 0-1.526-.244-1.802-.403v-6.73l-.742-.106s-.011-.074-.011-.117c0-.18.138-.308.392-.328l1.441-.138.001 3.169Zm0 3.72c.191.137.488.286.923.286.922 0 1.494-.615 1.494-2.046 0-1.41-.689-1.855-1.367-1.855-.488 0-.827.191-1.05.435v3.18Zm8.978-3.774-1.738 4.622c-.615 1.632-1.346 2.205-2.247 2.205-.498 0-.71-.233-.71-.593 0-.201.074-.35.149-.446.127.053.307.096.509.096.636 0 1.23-.297 1.579-1.135l-2.014-4.77-.509-.158s-.011-.074-.011-.106c0-.169.138-.255.297-.255h1.983c.085 0 .127.043.127.107a.91.91 0 0 1-.074.254l-.593.158 1.25 3.457h.032l1.208-3.446-.795-.169s-.011-.074-.011-.106c0-.169.138-.255.297-.255h1.717c.085 0 .127.043.127.107a.91.91 0 0 1-.074.254l-.499.179Zm6.167.042h-1.452v3.096c0 .477.149.869.678.869.414 0 .753-.181.837-.254a.781.781 0 0 1 .096.349c0 .106-.371.604-1.336.604-.964 0-1.346-.562-1.346-1.378v-3.286h-.795s-.011-.064-.011-.095c0-.201.127-.318.329-.36l.519-.128.244-1.43h.784v1.43h1.569l-.116.583Zm2.363.053h.021a2.066 2.066 0 0 1 1.632-.762c1.06 0 1.664.625 1.664 1.865v2.81l.615.137c.106.021.148.053.148.137 0 .106-.085.265-.106.297h-2.406s-.011-.064-.011-.096c0-.19.127-.286.329-.349l.35-.127v-2.682c0-.901-.487-1.177-1.028-1.177-.657 0-1.007.286-1.209.487v3.371l.594.137c.106.021.149.053.149.137a.601.601 0 0 1-.106.297h-2.406s-.011-.064-.011-.096c0-.19.127-.286.329-.349l.371-.127v-6.434l-.753-.106s-.01-.074-.01-.117c0-.18.138-.308.392-.328l1.452-.138v3.213Zm5.851 1.94c.01 1.314.636 1.929 1.547 1.929.678 0 1.06-.264 1.325-.487.106.085.159.265.159.361 0 .264-.7.868-1.877.868-1.304 0-2.279-.742-2.279-2.587 0-1.845 1.113-2.787 2.322-2.787 1.198 0 1.802.731 1.802 1.792 0 .275-.053.645-.127.911h-2.872Zm1.855-.561c.021-.095.053-.276.053-.455 0-.583-.212-1.081-.827-1.081-.626 0-.996.498-1.071 1.537l1.845-.001Zm9.592-3.34c-.223-.148-.71-.327-1.293-.327-1.293 0-2.555.847-2.555 3.041 0 2.121.986 3.17 2.385 3.17.509 0 .911-.095 1.219-.212v-2.11l-.647-.149c-.106-.021-.148-.053-.148-.117 0-.096.074-.222.117-.318h2.417s.01.064.01.117c0 .169-.095.297-.36.371l-.244.064v2.215c-.286.255-1.071.827-2.629.827-1.865 0-3.328-1.155-3.328-3.731 0-2.757 2.046-3.837 3.805-3.837 1.124 0 1.686.318 2.035.476.032.318.064.976.064 1.06 0 .328-.095.541-.371.541a.91.91 0 0 1-.244-.043l-.233-1.038Zm3.412 3.901c.01 1.314.636 1.929 1.547 1.929.678 0 1.06-.264 1.325-.487.106.085.159.265.159.361 0 .264-.7.868-1.877.868-1.304 0-2.279-.742-2.279-2.587 0-1.845 1.113-2.787 2.322-2.787 1.198 0 1.802.731 1.802 1.792 0 .275-.053.645-.127.911h-2.872Zm1.855-.561c.021-.095.053-.276.053-.455 0-.583-.212-1.081-.827-1.081-.626 0-.996.498-1.071 1.537l1.845-.001Zm3.751-1.166h.032c.223-.36.614-.975 1.304-.975.498 0 .732.233.732.561a.907.907 0 0 1-.191.541 1.643 1.643 0 0 0-.71-.159c-.583 0-.88.233-1.102.54v3.192l.763.137c.106.021.149.053.149.137 0 .106-.085.265-.106.297h-2.565s-.011-.064-.011-.096c0-.19.128-.275.329-.349l.371-.127v-3.922l-.753-.117s-.011-.064-.011-.106c0-.18.138-.308.392-.328l1.441-.138-.064.912Zm10.822 3.7.604.137c.106.021.149.053.149.137a.601.601 0 0 1-.106.297h-2.396s-.011-.064-.011-.096c0-.19.127-.286.328-.349l.35-.127v-2.682c0-.922-.456-1.177-.954-1.177-.646 0-1.007.276-1.251.498.032.169.053.35.053.551v2.81l.615.137c.106.021.148.053.148.137a.601.601 0 0 1-.106.297h-2.406s-.011-.064-.011-.096c0-.19.127-.286.328-.349l.35-.127v-2.682c0-.922-.445-1.177-.943-1.177-.594 0-.944.244-1.187.445v3.414l.604.137c.106.021.149.053.149.137 0 .106-.085.265-.106.297h-2.406s-.011-.064-.011-.096c0-.19.128-.275.329-.349l.371-.127V148.7l-.753-.117s-.011-.064-.011-.106c0-.18.138-.308.392-.328l1.441-.138-.064.69h.032a2.182 2.182 0 0 1 1.675-.753c.646 0 1.123.296 1.367.858.286-.318.848-.858 1.802-.858 1.018 0 1.632.645 1.632 1.865v2.812h.003Zm5.119-.563c0 .424.159.551.339.551.244 0 .372-.127.403-.18.054.074.128.223.128.318 0 .138-.276.55-.965.55-.487 0-.794-.211-.89-.741h-.021c-.117.201-.51.763-1.389.763-.805 0-1.378-.55-1.378-1.388 0-1.135 1.24-1.558 2.428-1.558h.276v-.477c0-.964-.255-1.346-.912-1.346-.244 0-.456.073-.541.105-.096.201-.18.572-.233.933 0 0-.159.01-.244.01-.36 0-.562-.17-.562-.498 0-.658.869-1.155 1.855-1.155 1.166 0 1.707.636 1.707 1.833v2.28h-.001Zm-1.315-1.156c-.859.043-1.346.35-1.346.913 0 .444.255.741.689.741.435 0 .764-.286.901-.455v-1.208l-.244.009Zm7.738 1.719.626.137c.105.021.148.053.148.137 0 .106-.085.265-.105.297h-2.407s-.01-.064-.01-.096c0-.19.127-.286.328-.349l.35-.127v-2.682c0-.901-.509-1.177-1.028-1.177-.604 0-.996.286-1.219.466v3.393l.604.137c.106.021.149.053.149.137 0 .106-.085.265-.106.297h-2.406s-.011-.064-.011-.096c0-.19.128-.275.329-.349l.371-.127v-3.922l-.753-.117s-.01-.064-.01-.106c0-.18.137-.308.392-.328l1.441-.138-.064.742h.032c.286-.308.763-.805 1.739-.805 1.039 0 1.611.667 1.611 1.865v2.811h-.001Zm7.63-3.213v.021c1.028.17 1.707.753 1.707 1.718 0 1.187-.975 2.046-2.883 2.046h-2.692s-.011-.064-.011-.117c0-.169.086-.318.36-.382l.446-.105v-6.127l-.647-.149c-.105-.021-.148-.053-.148-.117 0-.094.074-.222.117-.318h2.491c1.887 0 2.788.668 2.788 1.845-.001 1.007-.617 1.484-1.528 1.685Zm-1.356-2.883h-.573v2.671h.562c1.209 0 1.717-.594 1.717-1.346 0-.869-.541-1.325-1.706-1.325Zm.127 3.286h-.7v2.735h.636c1.24 0 1.792-.583 1.792-1.41-.001-.784-.584-1.325-1.728-1.325Zm8.732 2.788.773.106s.011.042.011.085c0 .19-.138.318-.392.339l-1.399.128v-.7h-.022a1.892 1.892 0 0 1-1.569.763c-1.134 0-1.664-.667-1.664-1.919v-2.702l-.753-.117s-.01-.064-.01-.106c0-.18.138-.308.392-.328l1.441-.138v3.339c0 .964.509 1.187.976 1.187.54 0 .9-.233 1.144-.509v-3.328l-.753-.117s-.01-.064-.01-.106c0-.18.138-.308.392-.328l1.441-.138v4.589h.002Zm6.487.022.625.137c.106.021.149.053.149.137 0 .106-.085.265-.106.297h-2.406s-.01-.064-.01-.096c0-.19.127-.286.328-.349l.35-.127v-2.682c0-.901-.509-1.177-1.028-1.177-.604 0-.996.286-1.219.466v3.393l.604.137c.105.021.148.053.148.137 0 .106-.085.265-.105.297h-2.407s-.01-.064-.01-.096c0-.19.127-.275.328-.349l.372-.127v-3.922l-.753-.117s-.01-.064-.01-.106c0-.18.137-.308.391-.328l1.442-.138-.064.742h.032c.286-.308.763-.805 1.738-.805 1.039 0 1.612.667 1.612 1.865v2.811h-.001Zm5.978-.022.773.106s.011.042.011.085c0 .19-.138.318-.392.339l-1.399.128v-.689h-.032c-.233.327-.678.752-1.505.752-1.039 0-2.014-.667-2.014-2.512 0-1.971 1.378-2.861 2.734-2.861a3.3 3.3 0 0 1 .753.095v-1.855l-.753-.106s-.01-.074-.01-.117c0-.18.137-.308.392-.328l1.441-.138.001 7.101Zm-1.071-3.699c-.159-.149-.445-.318-.89-.318-.859 0-1.495.614-1.495 2.014 0 1.367.594 1.919 1.304 1.919.614 0 .944-.286 1.081-.445v-3.17Zm3.687 1.748c.01 1.314.636 1.929 1.548 1.929.678 0 1.059-.264 1.325-.487.105.085.159.265.159.361 0 .264-.7.868-1.876.868-1.304 0-2.279-.742-2.279-2.587 0-1.845 1.113-2.787 2.321-2.787 1.198 0 1.802.731 1.802 1.792 0 .275-.053.645-.127.911h-2.873Zm1.855-.561c.022-.095.054-.276.054-.455 0-.583-.213-1.081-.827-1.081-.626 0-.996.498-1.071 1.537l1.844-.001Zm4.568-1.357a1.26 1.26 0 0 0-.699-.212c-.35 0-.71.149-.71.593 0 .467.499.743 1.007 1.04.636.381 1.314.795 1.314 1.643 0 .868-.721 1.526-1.887 1.526-.594 0-1.123-.18-1.346-.318a5.234 5.234 0 0 1-.074-.816c0-.424.117-.594.435-.594.054 0 .138.01.138.01l.222.901c.106.073.414.212.721.212.519 0 .849-.201.849-.646 0-.455-.509-.71-.986-1.007-.646-.414-1.293-.827-1.293-1.739 0-.826.721-1.378 1.738-1.378.615 0 1.049.212 1.24.391.022.149.042.371.042.583 0 .371-.074.615-.455.615-.053 0-.127-.011-.127-.011l-.129-.793Zm4.886-.075h-1.453v3.096c0 .477.149.869.678.869.414 0 .753-.181.837-.254a.768.768 0 0 1 .096.349c0 .106-.372.604-1.336.604-.964 0-1.346-.562-1.346-1.378v-3.286h-.795s-.01-.064-.01-.095c0-.201.127-.318.328-.36l.519-.128.245-1.43h.784v1.43h1.569l-.116.583Zm4.494 3.403c0 .424.159.551.339.551.244 0 .371-.127.403-.18.054.074.127.223.127.318 0 .138-.276.55-.964.55-.487 0-.795-.211-.89-.741h-.022c-.117.201-.508.763-1.388.763-.806 0-1.378-.55-1.378-1.388 0-1.135 1.24-1.558 2.428-1.558h.276v-.477c0-.964-.255-1.346-.912-1.346-.244 0-.456.073-.541.105-.095.201-.18.572-.232.933 0 0-.159.01-.245.01-.36 0-.562-.17-.562-.498 0-.658.869-1.155 1.855-1.155 1.166 0 1.707.636 1.707 1.833v2.28h-.001Zm-1.314-1.156c-.859.043-1.346.35-1.346.913 0 .444.254.741.689.741.435 0 .763-.286.901-.455v-1.208l-.244.009Zm7.439-2.225h-.858c.201.264.328.582.328.964 0 1.123-.932 1.76-2.088 1.76-.181 0-.34-.021-.499-.053-.149.085-.296.233-.296.476 0 .255.169.372.53.372h1.23c.975 0 1.526.445 1.526 1.209 0 1.059-1.039 2.034-2.83 2.034-1.303 0-1.939-.455-1.939-1.229 0-.742.582-1.092.964-1.209v-.022a.799.799 0 0 1-.435-.741c0-.615.562-.901.763-1.007v-.021c-.594-.265-.975-.806-.975-1.569 0-1.113.932-1.696 2.014-1.696.286 0 .562.041.827.126h1.855l-.117.606Zm-3.052 4.473c-.149 0-.276-.01-.392-.022a.871.871 0 0 0-.455.785c0 .551.339.901 1.112.901 1.028 0 1.664-.478 1.664-1.039 0-.435-.244-.626-.785-.626h-1.144v.001Zm-.467-3.497c0 .837.424 1.165.954 1.165.572 0 .986-.327.986-1.165 0-.753-.414-1.135-.964-1.135-.551 0-.976.318-.976 1.135Z"/>
    <path fill="#FC0" d="M225.372 91.756h1.5v20h-3.5v-20h2Z"/>
    <path fill="red" d="M225.372 71.655h1.5v20.101h-3.5v-20.1h2Z"/>
    <path fill="#000" d="M214.252 58.753c1.026 1.624 1.831 1.596 3.044 1.596-1.004-.77-1.668-1.755-1.985-2.258l-1.876-3a4.447 4.447 0 0 0-1.38-2.439 2.48 2.48 0 0 0 .563-.279c-1.225 0-2.438-.622-3.106-.622-.429 0-.706.257-.706.596.028.378.417.763 1.136.763.163 0 .371-.022.6-.059.389.543.703 1.033.703 1.733 0 1.314-1.571 2.338-3.157 2.338a3.31 3.31 0 0 1-.264-.01c-.144-.325-.621-.873-.621-1.494 0-1.044.681-1.897.681-2.93 0-.643-.313-1.04-.434-1.207.195-.18.408-.403.457-.555-.113.05-.247.055-.443.055-.76 0-1.38-.198-1.984-.198-.344 0-.437.107-.437.208 0 .037.006.075.016.093a2.05 2.05 0 0 0-.393-.11 3.065 3.065 0 0 0-.574-.05c-.734 0-.995.307-.995.57 0 .223.176.631.375.941.286-.144.63-.24.787-.24.389 0 .736.37.92.81-.262.031-.312.043-.577.043-.714 0-1.201-.256-1.301-.256-.01 0-.029.005-.029.021 0 .1.203.365.602.511.526.192 1.315.273 1.446.294 0 .023-.134.272-.283.32a.171.171 0 0 1-.093.004c-.55-.109-.703-.155-1.401-.42-.022-.008-.034.005-.034.028 0 .276.714.884 1.354 1.118-.534.682-1.202 1.38-1.516 2.444-.089.007-.175.01-.265.01-1.586 0-3.157-1.024-3.157-2.338 0-.7.314-1.19.704-1.733.229.038.436.06.599.06.719 0 1.108-.386 1.137-.764 0-.339-.276-.596-.707-.596-.668 0-1.88.622-3.106.622a2.4 2.4 0 0 0 .563.28 4.444 4.444 0 0 0-1.38 2.437l-1.875 3.001c-.316.503-.982 1.49-1.986 2.258 1.213 0 2.018.027 3.045-1.596l.961-1.539c.072.2.159.394.262.585l-1.912 3.06c-.318.507-.977 1.485-1.986 2.26 1.214 0 2.018.027 3.044-1.596l1.646-2.636c.123.131.253.26.389.382L197 62.99c-.319.507-.975 1.482-1.985 2.256 1.214 0 2.018.03 3.045-1.595l2.264-3.626c.149.094.302.186.46.272l-2.764 4.423c-.319.51-.975 1.481-1.985 2.257 1.214 0 2.018.028 3.045-1.594l2.846-4.556c.168.065.339.126.513.182l-3.216 5.148c-.314.501-.985 1.491-1.984 2.257 1.213 0 2.018.027 3.044-1.595l3.428-5.487c.035.006.07.012.103.02.093.296.159.572.159.848 0 1.724-1.131 3.247-2.489 4.422.087.038.238.051.378.051.28 0 .461-.015.588-.037-.315.715-.99 1.64-1.331 2.117a9.95 9.95 0 0 0-1.515-.143c-.443 0-.493.26-.493.491 0 .403.188.723.407.901.082-.206.247-.48 1.066-.48.016 0 .044.001.082.004-.24.266-.989.872-.989 1.36 0 .322.355.806.821.806-.028-.104-.024-.2-.024-.27 0-.397.35-.859.645-1.18-.009.095-.004.085-.004.197 0 .934.085 1.363.677 1.363.291 0 .492-.16.561-.208-.385-.355-.405-.633-.405-1.157l.003-.453c.002-.119 0-.278-.02-.393.213-.029.298-.029.461-.029 0 0 .842-.067 1.045.371.229-.21.561-.505.561-.832 0-.215-.102-.459-.536-.459-.164 0-.681.101-1.113.101.116-.259.633-1.015 1.081-1.563.067.213.173.443.408.631.032-.353.239-1.469.791-2.12.064.44.151.892.151 1.846 0 2.32-.558 4.034-1.742 4.361.154.268.48.51.818.51.433 0 .669-.49.91-.953.125.341.472 1.177.818 1.177.347 0 .693-.836.819-1.177.241.462.476.952.91.952.338 0 .665-.24.819-.509-1.185-.327-1.743-2.04-1.743-4.36 0-.955.086-1.407.15-1.848.552.652.76 1.77.791 2.121a1.25 1.25 0 0 0 .409-.63c.448.548.965 1.304 1.081 1.562-.433 0-.95-.1-1.114-.1-.433 0-.536.243-.536.458 0 .326.332.622.561.832.202-.438 1.045-.37 1.045-.37.163 0 .249 0 .461.028-.02.115-.021.273-.02.393l.003.453c0 .524-.02.802-.405 1.157.069.048.27.208.56.208.593 0 .678-.429.678-1.363 0-.112.003-.102-.004-.198.295.322.645.784.645 1.18 0 .072.004.167-.024.271.467 0 .822-.484.822-.807 0-.488-.749-1.093-.989-1.359l.082-.005c.819 0 .984.275 1.067.481.219-.178.407-.499.407-.9 0-.232-.049-.492-.493-.492a9.95 9.95 0 0 0-1.515.143c-.341-.478-1.016-1.402-1.331-2.117.127.023.309.037.588.037.141 0 .291-.013.379-.05-1.358-1.176-2.49-2.699-2.49-4.423 0-.276.066-.552.159-.849l.104-.019 3.427 5.487c1.026 1.622 1.832 1.595 3.044 1.595-.999-.766-1.67-1.755-1.983-2.257l-3.217-5.148c.174-.056.345-.118.514-.182l2.846 4.556c1.026 1.623 1.831 1.594 3.044 1.594-1.01-.776-1.666-1.747-1.985-2.257l-2.764-4.423c.157-.086.311-.178.459-.272l2.265 3.626c1.027 1.624 1.831 1.595 3.044 1.595-1.009-.774-1.665-1.748-1.985-2.257l-2.323-3.719c.137-.122.267-.25.389-.382l1.647 2.636c1.026 1.623 1.831 1.595 3.045 1.595-1.009-.774-1.667-1.75-1.986-2.259l-1.912-3.06c.103-.19.19-.385.262-.585l.961 1.54Zm-15.351-3.523c0-1.143.831-2.047 1.124-2.302l.211.05c-.311.38-.86 1.015-.86 1.857 0 1.672 1.787 3.125 3.811 3.125a4.98 4.98 0 0 0-.02.45c0 .246.014.476.038.692-2.288-.014-4.304-1.87-4.304-3.872Zm3.101 13.713-.013.04h.04c.642 0 .955-.047 1.163-.077.109-.014.187-.025.271-.025.166 0 .293.016.293.22 0 .137-.161.355-.317.481-.237-.223-.565-.267-1.046-.267-.225 0-.52.04-.678.063l-.025.003-.028.004.009.075c.019.133.042.3.042.522l-.003.203-.002.252c0 .546.075.857.266 1.092a.59.59 0 0 1-.181.033c-.338 0-.437-.148-.437-1.124 0-.196-.011-.38-.018-.502l-.009-.18-.043.032c-.503.384-1.022 1.07-1.053 1.583-.152-.098-.316-.317-.316-.486 0-.28.421-.7.908-1.187l.281-.28.035-.036-.092-.022a2.02 2.02 0 0 0-.465-.076c-.547 0-.888.103-1.1.333-.075-.11-.139-.365-.139-.515 0-.097.019-.165.058-.205.048-.046.122-.046.187-.046h.014c.602 0 1.322.11 1.603.154l.017.004.011-.014c.049-.066 1.196-1.594 1.495-2.405a.62.62 0 0 1 .248-.045c.226 0 .289.153.354.386-.72.868-1.167 1.546-1.33 2.012Zm6.193-2.4c.12 0 .179.02.248.044.298.811 1.446 2.34 1.494 2.405l.011.014.017-.004c.281-.045 1-.154 1.603-.154h.013c.066 0 .14 0 .187.046.039.04.058.108.058.205 0 .15-.064.405-.139.515-.211-.23-.553-.333-1.1-.333-.165 0-.359.05-.465.076l-.043.01-.05.013.316.316c.487.487.909.907.909 1.187 0 .168-.164.388-.316.486-.032-.513-.55-1.199-1.054-1.583l-.043-.032-.008.18c-.007.122-.018.307-.018.502 0 .977-.099 1.124-.437 1.124a.628.628 0 0 1-.181-.033c.19-.235.266-.546.266-1.092l-.003-.252-.003-.203c0-.223.023-.389.041-.522l.01-.075-.053-.007a5.29 5.29 0 0 0-.677-.063c-.482 0-.809.044-1.046.267-.156-.126-.317-.344-.317-.482 0-.204.127-.219.293-.219.084 0 .163.012.271.025.207.03.52.076 1.162.076h.04l-.012-.039c-.163-.466-.61-1.144-1.328-2.016.065-.23.128-.383.354-.383Zm-2.659-13.34a2.102 2.102 0 0 0-.417-.832c-.176-.208-.468-.455-.861-.455-.18 0-.48.084-.672.165-.072-.13-.212-.444-.212-.586 0-.145.246-.293.716-.293 1.035 0 1.653.468 1.653 1.252.002.275-.108.526-.207.75Zm.465-1.02a1.353 1.353 0 0 0-.25-.594c.006-.203.09-.396.416-.237-.176.181-.04.5-.04.5s.361-.167.287-.405c.535.127.15.846-.413.736Zm2.014 6.92c.027-.225.043-.457.043-.694 0-.129.001-.279-.015-.45 1.998-.028 3.752-1.468 3.752-3.124 0-.843-.549-1.479-.86-1.858.07-.015.14-.03.211-.049.293.255 1.124 1.16 1.124 2.302-.001 1.987-1.987 3.831-4.255 3.872Zm18.857-7.347v20h-3.5v-20h3.5Zm7.431 7.974v-8.21h4.034l-.071.82h-2.927v3.036h2.701v.82h-2.701v3.535h-1.036Zm8.687-3.783c0 .246-.008.458-.024.637s-.032.335-.048.47h-2.915c.032.674.176 1.17.434 1.488.258.317.629.476 1.113.476a1.623 1.623 0 0 0 .803-.202 1.746 1.746 0 0 0 .399-.298l.357.678-.178.173a1.587 1.587 0 0 1-.321.226 2.286 2.286 0 0 1-.5.196 2.6 2.6 0 0 1-.702.083c-.357 0-.68-.06-.97-.18a1.828 1.828 0 0 1-.738-.552 2.676 2.676 0 0 1-.47-.952c-.111-.385-.167-.847-.167-1.386 0-.508.057-.946.173-1.315a2.62 2.62 0 0 1 .47-.91c.198-.238.428-.415.69-.53.262-.115.543-.173.845-.173.547 0 .976.173 1.285.518.309.345.464.863.464 1.553Zm-1.809-1.285a.966.966 0 0 0-.821.428c-.206.286-.325.698-.357 1.238h2.083a1.28 1.28 0 0 0 .018-.173 4.62 4.62 0 0 0 .006-.244c0-.397-.079-.704-.238-.922-.159-.218-.389-.327-.691-.327Zm2.833 2.297c0-.58.075-1.063.226-1.452.151-.39.345-.702.583-.94s.508-.407.809-.506c.301-.1.603-.15.904-.15.183 0 .341.015.476.043.135.028.246.06.333.1v-2.736l.964-.107v8.52h-.881v-.607h-.024a1.347 1.347 0 0 1-.393.446c-.111.083-.25.155-.416.214a1.747 1.747 0 0 1-.583.089c-.27 0-.526-.054-.768-.161a1.662 1.662 0 0 1-.637-.512 2.671 2.671 0 0 1-.434-.904c-.107-.37-.159-.814-.159-1.337Zm2.261 2.058a1.233 1.233 0 0 0 .714-.208 1.304 1.304 0 0 0 .357-.351v-3.522a1.419 1.419 0 0 0-.303-.143 1.34 1.34 0 0 0-.434-.06c-.222 0-.43.038-.625.113-.194.075-.363.2-.506.375a1.931 1.931 0 0 0-.339.678 3.618 3.618 0 0 0-.125 1.023c0 .397.034.728.101.994s.161.48.28.643a1.06 1.06 0 0 0 .88.458Zm7.175-3.07c0 .246-.008.458-.024.637s-.032.335-.048.47h-2.915c.032.674.176 1.17.434 1.488.258.317.629.476 1.113.476a1.623 1.623 0 0 0 .803-.202 1.746 1.746 0 0 0 .399-.298l.357.678-.178.173a1.587 1.587 0 0 1-.321.226 2.306 2.306 0 0 1-.5.196 2.6 2.6 0 0 1-.702.083c-.357 0-.68-.06-.97-.18a1.828 1.828 0 0 1-.738-.552 2.676 2.676 0 0 1-.47-.952c-.111-.385-.167-.847-.167-1.386 0-.508.057-.946.173-1.315a2.62 2.62 0 0 1 .47-.91c.198-.238.428-.415.69-.53.262-.115.543-.173.845-.173.547 0 .976.173 1.285.518.31.345.464.863.464 1.553Zm-1.809-1.285a.966.966 0 0 0-.821.428c-.206.286-.325.698-.357 1.238h2.083a1.28 1.28 0 0 0 .018-.173 4.62 4.62 0 0 0 .006-.244c0-.397-.079-.704-.238-.922-.159-.218-.389-.327-.691-.327Zm5.605.202a.68.68 0 0 0-.155-.06 1.144 1.144 0 0 0-.321-.036c-.302 0-.538.08-.708.244a1.415 1.415 0 0 0-.363.53v4.189h-.964v-5.712h.881v.774h.024c.04-.111.091-.22.155-.327.063-.107.143-.202.238-.286a1.03 1.03 0 0 1 .339-.196c.131-.048.288-.071.47-.071.135 0 .244.012.327.036.083.024.149.044.196.06l-.119.855Zm.56 3.416c0-.333.063-.611.19-.833.127-.222.297-.403.512-.542.214-.14.466-.238.756-.298.289-.06.597-.09.922-.09h.298v-.546c0-.484-.085-.817-.256-1-.171-.182-.411-.274-.72-.274-.286 0-.524.06-.714.184-.19.123-.341.232-.452.327l-.405-.643c.064-.063.145-.135.244-.214.099-.08.22-.155.363-.226a2.444 2.444 0 0 1 1.107-.25c.587 0 1.031.163 1.333.488.302.325.452.849.452 1.57v2.607c0 .246.008.486.024.72.016.234.032.39.048.47h-.916l-.036-.631h-.024a1.515 1.515 0 0 1-.143.244 1.167 1.167 0 0 1-.238.25 1.45 1.45 0 0 1-.345.196 1.235 1.235 0 0 1-.476.083c-.214 0-.415-.04-.601-.12a1.481 1.481 0 0 1-.809-.838 1.69 1.69 0 0 1-.114-.634Zm1.725.773c.135 0 .254-.02.357-.06a1.15 1.15 0 0 0 .268-.143.93.93 0 0 0 .19-.185c.052-.067.097-.125.137-.173V57.23l-.309.012c-.46.016-.809.095-1.047.238-.238.143-.357.373-.357.69 0 .293.067.514.202.66.135.149.321.222.559.222Zm4.308-.654c0 .238.034.405.101.5.067.095.184.143.351.143a.859.859 0 0 0 .357-.072l.083.714a1.761 1.761 0 0 1-.774.155c-.325 0-.587-.1-.785-.298-.198-.2-.297-.551-.297-1.06v-7.163l.964-.107v7.188Zm11.329-6.88v8.212h-1v-4.629c0-.238.002-.46.006-.666a17.829 17.829 0 0 1 .042-.916h-.036c-.04.182-.121.478-.244.886-.123.409-.264.847-.423 1.315l-1.357 4.01h-.821l-1.357-4.01a39.075 39.075 0 0 1-.422-1.315 13.53 13.53 0 0 1-.244-.886h-.036a17.932 17.932 0 0 1 .042.922c.004.202.006.423.006.66v4.629h-1V51.52h1.154l1.94 5.664c.087.262.165.518.232.768s.109.466.125.649h.024c.008-.182.046-.397.113-.643s.145-.5.232-.762l1.94-5.676h1.084Zm2.642 8.212h-.964v-5.712h.964v5.712Zm-.476-7.092a.621.621 0 0 1-.476-.19.702.702 0 0 1-.178-.5.69.69 0 0 1 .178-.488.621.621 0 0 1 .476-.19c.19 0 .345.063.464.19.119.127.178.29.178.488a.702.702 0 0 1-.178.5.61.61 0 0 1-.464.19Zm5.069 7.092v-3.677c0-.484-.081-.831-.244-1.041-.163-.21-.411-.315-.744-.315-.286 0-.524.07-.714.214-.19.143-.341.282-.452.417v4.403h-.964V54.02h.881v.643h.024a1.475 1.475 0 0 1 .464-.47c.127-.083.278-.157.452-.22s.373-.095.595-.095c.254 0 .484.038.69.113.206.075.381.196.524.363.143.167.254.383.333.648.079.266.119.593.119.982v3.749h-.964v-.002Zm3.368 0h-.964v-5.712h.964v5.712Zm-.476-7.092a.621.621 0 0 1-.476-.19.702.702 0 0 1-.178-.5.69.69 0 0 1 .178-.488.621.621 0 0 1 .476-.19c.19 0 .345.063.464.19.119.127.178.29.178.488 0 .206-.06.373-.178.5a.61.61 0 0 1-.464.19Zm4.415 2.535a2.395 2.395 0 0 0-.345-.292c-.167-.123-.385-.184-.654-.184-.254 0-.448.059-.583.178a.552.552 0 0 0-.202.428c0 .214.061.39.184.529s.311.288.565.446l.357.214c.389.23.694.478.916.744.222.266.333.609.333 1.029 0 .452-.157.833-.47 1.142-.313.309-.764.464-1.351.464a2.347 2.347 0 0 1-1.065-.238 1.485 1.485 0 0 1-.327-.208 2.156 2.156 0 0 1-.214-.208l.464-.762c.048.048.105.103.173.167a1.553 1.553 0 0 0 .565.333c.119.04.258.059.417.059.286 0 .504-.063.654-.19a.585.585 0 0 0 .226-.464c0-.135-.018-.252-.053-.351a.81.81 0 0 0-.161-.268 1.483 1.483 0 0 0-.262-.226 13.776 13.776 0 0 0-.357-.238l-.357-.226a3.438 3.438 0 0 1-.839-.726c-.202-.254-.303-.58-.303-.976 0-.214.042-.411.125-.59.083-.177.2-.332.351-.463.151-.131.327-.234.53-.31a1.87 1.87 0 0 1 .648-.112 2.2 2.2 0 0 1 .571.065 1.693 1.693 0 0 1 .697.369c.075.068.137.125.184.173l-.417.692Zm4.141-.37h-1.249v3.166c0 .405.052.68.155.827.103.147.278.22.524.22.143 0 .266-.02.369-.06a1.26 1.26 0 0 0 .226-.106l.131.773c-.04.032-.135.08-.286.149-.151.067-.353.1-.607.1-.492 0-.861-.136-1.107-.41-.246-.274-.369-.728-.369-1.362v-3.296h-.69v-.643l.69-.143.107-1.595h.857v1.595h1.368l-.119.786Zm3.605.06a.68.68 0 0 0-.155-.06 1.144 1.144 0 0 0-.321-.036c-.301 0-.537.08-.708.244a1.415 1.415 0 0 0-.363.53v4.189h-.964v-5.712h.881v.774h.024c.04-.111.091-.22.155-.327.064-.107.143-.202.238-.286a1.03 1.03 0 0 1 .339-.196c.131-.048.288-.071.47-.071.135 0 .244.012.327.036.083.024.149.044.196.06l-.119.855Zm4.76-.845-1.785 6.045c-.206.698-.458 1.226-.756 1.583-.297.357-.728.535-1.291.535a.9.9 0 0 1-.297-.042 1.688 1.688 0 0 1-.167-.066v-.833c.04.016.091.034.155.054.063.02.147.03.25.03.341 0 .601-.107.78-.321.179-.214.331-.543.458-.988l.083-.298-1.845-5.7h1.035l.892 3.165c.087.325.167.629.238.91.071.282.115.534.131.756h.024c.016-.222.054-.472.113-.75.06-.278.133-.58.22-.904l.809-3.177h.953Zm-65.711 12.786h-1.166v4.927h-.964v-4.927h-.69v-.643l.69-.131v-1.142c0-.31.044-.575.131-.797.087-.222.202-.405.345-.547.143-.143.309-.246.5-.31.191-.062.393-.094.607-.094.206 0 .381.028.524.083.143.055.238.099.286.13l-.202.798a1.21 1.21 0 0 0-.202-.101.842.842 0 0 0-.321-.053c-.23 0-.405.07-.524.214-.119.143-.178.405-.178.785v1.023h1.285l-.121.785Zm.583 2.07c0-.524.061-.976.184-1.357s.29-.692.5-.934c.21-.242.452-.421.726-.536.274-.115.565-.173.875-.173.317 0 .611.057.881.173.27.115.504.294.702.536.198.242.355.553.47.934.115.38.173.833.173 1.357 0 .532-.06.988-.178 1.368a2.578 2.578 0 0 1-.494.934c-.21.242-.454.418-.732.53a2.352 2.352 0 0 1-.881.167c-.317 0-.611-.055-.881-.167a1.77 1.77 0 0 1-.702-.53 2.687 2.687 0 0 1-.47-.928c-.116-.376-.173-.834-.173-1.374Zm3.51 0c0-.762-.111-1.315-.333-1.66-.222-.345-.531-.518-.928-.518s-.704.173-.922.518c-.218.345-.327.898-.327 1.66 0 .762.111 1.309.333 1.642.222.333.532.5.928.5s.704-.167.922-.5c.218-.333.327-.88.327-1.642Zm4.725-2.011a.646.646 0 0 0-.155-.06 1.144 1.144 0 0 0-.321-.035c-.302 0-.538.08-.708.244a1.415 1.415 0 0 0-.363.53v4.189h-.964V66.02h.881v.773h.024c.04-.111.091-.22.155-.327.063-.107.143-.202.238-.286a1.03 1.03 0 0 1 .339-.196c.131-.048.288-.071.47-.071.135 0 .244.012.327.036.083.024.149.044.196.06l-.119.855Zm7.366-2.523h-2.927v2.832h2.689v.82h-2.689v2.88h3.225l-.059.858h-4.201V63.52h4.034l-.072.82Zm4.569 2.785a3.069 3.069 0 0 0-.113-.107 1.23 1.23 0 0 0-.482-.268 1.473 1.473 0 0 0-.958.06 1.159 1.159 0 0 0-.464.363 1.862 1.862 0 0 0-.309.648 3.613 3.613 0 0 0-.113.97c0 .42.034.773.101 1.059.067.286.161.514.28.684.119.17.264.294.434.369.17.075.359.113.565.113.293 0 .518-.052.672-.155.155-.103.264-.186.327-.25l.393.666a1.478 1.478 0 0 1-.465.369 2.007 2.007 0 0 1-.434.16 2.374 2.374 0 0 1-.589.066c-.317 0-.615-.052-.892-.155a1.76 1.76 0 0 1-.726-.512c-.206-.238-.369-.547-.488-.928s-.178-.853-.178-1.416c0-.547.071-1.012.214-1.392.143-.381.329-.688.559-.922.23-.234.486-.405.768-.512.282-.107.565-.161.851-.161.214 0 .403.02.565.059.163.04.301.089.417.149.115.06.21.123.286.19.075.067.137.125.184.173l-.405.68Zm1.059 1.749c0-.524.061-.976.185-1.357.123-.381.289-.692.5-.934.21-.242.452-.421.726-.536.274-.115.565-.173.875-.173.317 0 .611.057.881.173.27.115.504.294.702.536.198.242.355.553.47.934.115.38.173.833.173 1.357 0 .532-.06.988-.178 1.368a2.578 2.578 0 0 1-.494.934c-.21.242-.454.418-.732.53a2.352 2.352 0 0 1-.881.167c-.317 0-.611-.055-.881-.167a1.77 1.77 0 0 1-.702-.53 2.687 2.687 0 0 1-.47-.928c-.116-.376-.174-.834-.174-1.374Zm3.511 0c0-.762-.111-1.315-.333-1.66-.222-.345-.531-.518-.928-.518s-.704.173-.922.518c-.218.345-.327.898-.327 1.66 0 .762.111 1.309.333 1.642.222.333.531.5.928.5s.704-.167.922-.5c.218-.333.327-.88.327-1.642Zm5.331 2.856v-3.677c0-.484-.081-.831-.244-1.041-.163-.21-.411-.315-.744-.315-.286 0-.524.07-.714.214-.19.143-.341.282-.452.417v4.403h-.964V66.02h.881v.643h.024a1.505 1.505 0 0 1 .464-.47c.127-.083.278-.157.452-.22s.373-.095.595-.095c.254 0 .484.038.69.113.206.075.381.196.524.363.143.167.254.383.333.648.079.266.119.593.119.982v3.748l-.964-.001Zm2.142-2.856c0-.524.061-.976.185-1.357.123-.381.289-.692.5-.934.21-.242.452-.421.726-.536.274-.115.565-.173.875-.173.317 0 .611.057.881.173.27.115.504.294.702.536.198.242.355.553.47.934.115.38.173.833.173 1.357 0 .532-.06.988-.178 1.368a2.578 2.578 0 0 1-.494.934c-.21.242-.454.418-.732.53a2.352 2.352 0 0 1-.881.167c-.317 0-.611-.055-.881-.167a1.77 1.77 0 0 1-.702-.53 2.687 2.687 0 0 1-.47-.928c-.116-.376-.174-.834-.174-1.374Zm3.511 0c0-.762-.111-1.315-.333-1.66-.222-.345-.532-.518-.928-.518s-.704.173-.922.518c-.218.345-.327.898-.327 1.66 0 .762.111 1.309.333 1.642.222.333.531.5.928.5s.704-.167.922-.5c.217-.333.327-.88.327-1.642Zm5.212 2.856v-3.677c0-.468-.067-.805-.202-1.011-.135-.206-.353-.31-.654-.31a1.36 1.36 0 0 0-.749.21c-.095.06-.178.125-.25.196a3.415 3.415 0 0 0-.178.19v4.403h-.964V66.02h.881v.643h.024c.04-.064.099-.141.178-.232a1.693 1.693 0 0 1 .714-.47c.159-.056.337-.083.536-.083.65 0 1.111.254 1.38.762a1.856 1.856 0 0 1 1.511-.761c1.158 0 1.737.674 1.737 2.023v3.832h-.964v-3.677c0-.468-.083-.805-.25-1.011-.167-.206-.413-.31-.738-.31-.27 0-.494.066-.672.197a2.59 2.59 0 0 0-.422.375c.016.087.028.18.036.28.008.099.012.204.012.315v3.832h-.966v-.004Zm6.366 0h-.964v-5.712h.964v5.712Zm-.476-7.092a.621.621 0 0 1-.476-.19.703.703 0 0 1-.179-.5c0-.198.06-.361.179-.488a.621.621 0 0 1 .476-.19c.19 0 .345.063.464.19.119.127.178.29.178.488 0 .206-.06.373-.178.5a.609.609 0 0 1-.464.19Zm5.129 2.487a3.069 3.069 0 0 0-.113-.107 1.23 1.23 0 0 0-.482-.268 1.473 1.473 0 0 0-.958.06 1.159 1.159 0 0 0-.464.363 1.862 1.862 0 0 0-.309.648 3.613 3.613 0 0 0-.113.97c0 .42.034.773.101 1.059.067.286.161.514.28.684.119.17.264.294.434.369.171.075.359.113.565.113.294 0 .518-.052.672-.155.155-.103.264-.186.327-.25l.393.666a1.478 1.478 0 0 1-.464.369 2.007 2.007 0 0 1-.434.16 2.374 2.374 0 0 1-.589.066c-.317 0-.615-.052-.893-.155a1.76 1.76 0 0 1-.726-.512c-.206-.238-.369-.547-.488-.928s-.178-.853-.178-1.416c0-.547.071-1.012.214-1.392.143-.381.329-.688.559-.922.23-.234.486-.405.768-.512.282-.107.565-.161.851-.161.214 0 .403.02.565.059.163.04.301.089.417.149.115.06.21.123.286.19.075.067.137.125.184.173l-.405.68Zm9.199 4.605H297.1l-.738-2.63h-2.487l-.75 2.63h-1.047l2.678-8.211h.809l2.677 8.21Zm-2.106-3.415-.643-2.25a16.19 16.19 0 0 1-.226-.862 3.85 3.85 0 0 1-.107-.684h-.024a3.446 3.446 0 0 1-.113.672c-.068.266-.145.549-.232.85l-.678 2.274h2.023Zm5.319-1.511h-1.166v4.927h-.964v-4.927h-.69v-.643l.69-.131v-1.142c0-.31.044-.575.131-.797.087-.222.202-.405.345-.547.143-.143.309-.246.5-.31.191-.062.393-.094.607-.094.206 0 .381.028.524.083.143.056.238.099.286.13l-.202.798a1.21 1.21 0 0 0-.202-.101.842.842 0 0 0-.321-.053c-.23 0-.405.07-.524.214-.119.143-.178.405-.178.785v1.023h1.285l-.121.785Zm3.356 0h-1.166v4.927h-.964v-4.927h-.69v-.643l.69-.131v-1.142c0-.31.044-.575.131-.797.087-.222.202-.405.345-.547.143-.143.309-.246.5-.31.191-.062.393-.094.607-.094.206 0 .381.028.524.083.143.056.238.099.286.13l-.202.798a1.21 1.21 0 0 0-.202-.101.842.842 0 0 0-.321-.053c-.23 0-.405.07-.524.214-.119.143-.178.405-.178.785v1.023h1.285l-.121.785Zm.559 3.475c0-.333.064-.611.19-.833.127-.222.298-.403.512-.542.214-.14.466-.238.756-.298.289-.06.597-.09.922-.09h.298v-.546c0-.484-.085-.817-.256-1-.171-.182-.411-.274-.72-.274-.286 0-.524.062-.714.184-.19.123-.341.232-.452.327l-.405-.643c.064-.063.145-.135.244-.214.099-.08.22-.155.363-.226.143-.071.305-.131.488-.178a2.49 2.49 0 0 1 .619-.071c.587 0 1.031.163 1.333.488.302.325.452.849.452 1.57v2.607c0 .246.008.486.024.72.016.234.032.39.048.47h-.916l-.036-.631h-.024a1.515 1.515 0 0 1-.143.244 1.192 1.192 0 0 1-.238.25 1.45 1.45 0 0 1-.345.196 1.254 1.254 0 0 1-.476.083c-.214 0-.415-.04-.601-.12a1.481 1.481 0 0 1-.809-.838 1.72 1.72 0 0 1-.114-.635Zm1.725.773c.135 0 .254-.02.357-.06a1.15 1.15 0 0 0 .268-.143.93.93 0 0 0 .19-.185c.052-.067.097-.125.137-.173V69.23l-.309.012c-.46.016-.809.095-1.047.238-.238.143-.357.373-.357.69 0 .293.067.514.202.66.135.149.321.222.559.222Zm4.32.678h-.964v-5.712h.964v5.712Zm-.476-7.092a.621.621 0 0 1-.476-.19.702.702 0 0 1-.178-.5.69.69 0 0 1 .178-.488.621.621 0 0 1 .476-.19c.19 0 .345.063.464.19.119.127.178.29.178.488 0 .206-.06.373-.178.5a.609.609 0 0 1-.464.19Zm4.463 2.225a.646.646 0 0 0-.155-.06 1.144 1.144 0 0 0-.321-.035c-.302 0-.538.08-.708.244a1.415 1.415 0 0 0-.363.53v4.189h-.964V66.02h.881v.773h.024c.04-.111.091-.22.155-.327.063-.107.143-.202.238-.286a1.03 1.03 0 0 1 .339-.196c.131-.048.288-.071.47-.071.135 0 .244.012.327.036.083.024.149.044.196.06l-.119.855Zm3.367.31a2.454 2.454 0 0 0-.345-.292c-.167-.123-.385-.184-.655-.184-.254 0-.448.06-.583.178a.552.552 0 0 0-.202.428c0 .214.061.39.185.53.123.139.311.288.565.446l.357.214c.389.23.694.478.916.744.222.266.333.609.333 1.029 0 .452-.157.833-.47 1.142-.313.309-.764.464-1.351.464a2.347 2.347 0 0 1-1.065-.238 1.485 1.485 0 0 1-.327-.208 2.156 2.156 0 0 1-.214-.208l.464-.762c.048.048.105.103.173.167a1.553 1.553 0 0 0 .565.333c.119.04.258.06.417.06.286 0 .504-.064.655-.19a.584.584 0 0 0 .226-.464c0-.135-.018-.252-.053-.351a.81.81 0 0 0-.161-.268 1.478 1.478 0 0 0-.262-.226 13.776 13.776 0 0 0-.357-.238l-.357-.226a3.438 3.438 0 0 1-.839-.726c-.202-.254-.303-.58-.303-.976 0-.214.042-.411.125-.59.083-.177.2-.332.351-.463.151-.131.327-.234.53-.31a1.87 1.87 0 0 1 .648-.112 2.2 2.2 0 0 1 .571.065 1.693 1.693 0 0 1 .697.369c.075.068.137.125.184.173l-.418.69ZM233.768 82.28c0-.333.063-.611.19-.833.127-.222.298-.403.512-.542.214-.14.466-.238.756-.298s.597-.09.922-.09h.298v-.546c0-.484-.085-.817-.256-1-.171-.182-.411-.274-.72-.274-.286 0-.524.062-.714.184-.19.123-.341.232-.452.327l-.405-.643c.064-.063.145-.135.244-.214.099-.08.22-.155.363-.226a2.444 2.444 0 0 1 1.107-.249c.587 0 1.031.163 1.333.488.301.325.452.849.452 1.57v2.607c0 .246.008.486.024.72.016.234.032.39.048.47h-.916l-.036-.631h-.024a1.515 1.515 0 0 1-.143.244 1.167 1.167 0 0 1-.238.25 1.45 1.45 0 0 1-.345.196 1.254 1.254 0 0 1-.476.083 1.51 1.51 0 0 1-.601-.12 1.47 1.47 0 0 1-.809-.838 1.7 1.7 0 0 1-.114-.635Zm1.725.773c.135 0 .254-.02.357-.06a1.15 1.15 0 0 0 .268-.143.93.93 0 0 0 .19-.185 5.09 5.09 0 0 1 .137-.173V81.23l-.309.012c-.46.016-.809.095-1.047.238-.238.143-.357.373-.357.69 0 .293.067.514.202.66.135.149.321.222.559.222Zm6.474.678v-3.677c0-.484-.081-.831-.244-1.041-.163-.21-.411-.315-.744-.315-.286 0-.524.07-.714.214-.19.143-.341.282-.452.417v4.403h-.964V78.02h.881v.643h.024a1.505 1.505 0 0 1 .464-.47c.127-.083.278-.157.452-.22s.373-.095.595-.095c.254 0 .484.038.69.113.206.075.381.196.524.363.143.167.254.383.333.648.079.266.119.593.119.982v3.748l-.964-.001Zm2.142-2.772c0-.58.075-1.063.226-1.452.151-.39.345-.702.583-.94s.508-.407.809-.506c.301-.1.603-.15.904-.15.183 0 .341.015.476.043.135.028.246.06.333.1v-2.736l.964-.107v8.52h-.881v-.607h-.023a1.347 1.347 0 0 1-.393.446c-.111.083-.25.155-.416.214-.167.06-.361.089-.583.089-.27 0-.526-.053-.768-.161a1.662 1.662 0 0 1-.637-.512 2.671 2.671 0 0 1-.434-.904c-.107-.368-.16-.814-.16-1.337Zm2.261 2.058a1.268 1.268 0 0 0 1.071-.56v-3.522a1.419 1.419 0 0 0-.303-.143 1.34 1.34 0 0 0-.434-.06c-.222 0-.43.038-.625.113-.194.075-.363.2-.506.375a1.931 1.931 0 0 0-.339.678 3.618 3.618 0 0 0-.125 1.023c0 .397.034.728.101.994s.161.48.28.643a1.06 1.06 0 0 0 .88.459Zm5.855-3.391c0-.77.095-1.424.286-1.964.191-.54.442-.978.756-1.315.313-.337.67-.583 1.071-.738a3.387 3.387 0 0 1 1.232-.232c.301 0 .561.032.78.095.218.063.405.137.559.22.155.083.28.17.375.262.095.09.171.165.226.22l-.559.69-.167-.167a1.52 1.52 0 0 0-.268-.208 1.837 1.837 0 0 0-.387-.178 1.634 1.634 0 0 0-.524-.077c-.301 0-.591.06-.869.179s-.52.31-.726.577c-.206.266-.371.609-.494 1.029-.123.42-.184.932-.184 1.535 0 .627.052 1.156.155 1.589.103.432.25.785.44 1.059.19.274.419.472.684.595.266.123.561.185.887.185a2.278 2.278 0 0 0 1.047-.238c.127-.064.23-.13.309-.196.079-.067.143-.125.19-.173l.393.702a6.864 6.864 0 0 1-.232.22 1.722 1.722 0 0 1-.399.262 3.299 3.299 0 0 1-.595.22c-.23.063-.504.095-.821.095-.476 0-.908-.077-1.297-.232a2.464 2.464 0 0 1-1-.738c-.278-.337-.492-.775-.643-1.315-.15-.54-.225-1.194-.225-1.963Zm7.235 2.773c0 .238.034.405.101.5.067.095.184.143.351.143a.859.859 0 0 0 .357-.072l.083.714a1.761 1.761 0 0 1-.774.155c-.325 0-.587-.1-.785-.298-.198-.198-.298-.551-.298-1.06v-7.163l.964-.107.001 7.188Zm2.725 1.332h-.964v-5.712h.964v5.712Zm-.476-7.092a.621.621 0 0 1-.476-.19.702.702 0 0 1-.178-.5.69.69 0 0 1 .178-.488.62.62 0 0 1 .476-.19c.19 0 .345.063.464.19.119.127.178.29.178.488a.702.702 0 0 1-.178.5.61.61 0 0 1-.464.19Zm4.95 7.092v-3.677c0-.468-.067-.805-.202-1.011-.135-.206-.353-.31-.654-.31a1.36 1.36 0 0 0-.749.21c-.095.06-.179.125-.25.196a3.415 3.415 0 0 0-.178.19v4.403h-.964V78.02h.881v.643h.024c.04-.064.099-.141.178-.232a1.703 1.703 0 0 1 .714-.47c.159-.056.337-.083.536-.083.65 0 1.111.254 1.38.762a1.856 1.856 0 0 1 1.511-.761c1.158 0 1.737.674 1.737 2.023v3.832h-.964v-3.677c0-.468-.083-.805-.25-1.011-.167-.206-.413-.31-.738-.31-.27 0-.494.066-.672.197a2.59 2.59 0 0 0-.422.375c.016.087.028.18.036.28.008.099.012.204.012.315v3.832h-.966v-.004Zm5.07-1.451c0-.333.064-.611.19-.833.127-.222.298-.403.512-.542.214-.14.466-.238.756-.298.289-.06.597-.09.922-.09h.298v-.546c0-.484-.085-.817-.256-1-.171-.182-.411-.274-.72-.274-.286 0-.524.062-.714.184-.19.123-.341.232-.452.327l-.405-.643c.064-.063.145-.135.244-.214.099-.08.22-.155.363-.226.143-.071.305-.131.488-.178a2.49 2.49 0 0 1 .619-.071c.587 0 1.031.163 1.333.488.302.325.452.849.452 1.57v2.607c0 .246.008.486.024.72.016.234.032.39.048.47h-.916l-.036-.631h-.024a1.515 1.515 0 0 1-.143.244 1.192 1.192 0 0 1-.238.25 1.45 1.45 0 0 1-.345.196 1.254 1.254 0 0 1-.476.083c-.214 0-.415-.04-.601-.12a1.481 1.481 0 0 1-.809-.838 1.7 1.7 0 0 1-.114-.635Zm1.725.773c.135 0 .254-.02.357-.06a1.15 1.15 0 0 0 .268-.143.93.93 0 0 0 .19-.185c.052-.067.097-.125.137-.173V81.23l-.309.012c-.46.016-.809.095-1.047.238-.238.143-.357.373-.357.69 0 .293.067.514.202.66.135.149.321.222.559.222Zm5.795-4.248H278v3.165c0 .405.052.68.155.827.103.147.278.22.524.22.143 0 .266-.02.369-.06.103-.04.178-.075.226-.107l.131.773c-.04.032-.135.08-.286.149-.151.067-.353.1-.607.1-.492 0-.861-.136-1.107-.41-.246-.274-.369-.728-.369-1.363v-3.296h-.69v-.643l.69-.143.107-1.595H278v1.595h1.368l-.119.788Zm4.677 1.142c0 .246-.008.458-.024.637-.016.178-.032.335-.048.47h-2.915c.032.674.177 1.17.434 1.487.258.317.629.476 1.113.476.167 0 .317-.02.452-.06a1.686 1.686 0 0 0 .601-.31c.067-.055.117-.1.149-.131l.357.678-.178.173a1.587 1.587 0 0 1-.321.226 2.306 2.306 0 0 1-.5.196 2.64 2.64 0 0 1-.702.083c-.357 0-.68-.06-.97-.178a1.837 1.837 0 0 1-.738-.553 2.676 2.676 0 0 1-.47-.952c-.111-.385-.167-.847-.167-1.386 0-.508.057-.946.173-1.315a2.62 2.62 0 0 1 .47-.91c.198-.238.428-.414.69-.53.262-.115.543-.173.845-.173.547 0 .976.173 1.285.518.309.346.464.864.464 1.554Zm-1.809-1.285a.966.966 0 0 0-.821.428c-.206.285-.325.698-.357 1.238h2.083a1.28 1.28 0 0 0 .018-.173 4.62 4.62 0 0 0 .006-.244c0-.397-.079-.704-.238-.922-.159-.218-.389-.327-.691-.327Zm10.877 5.069h-1.142l-.738-2.63h-2.487l-.75 2.63h-1.047l2.677-8.211h.809l2.678 8.21Zm-2.106-3.415-.643-2.25a16.19 16.19 0 0 1-.226-.862 3.85 3.85 0 0 1-.107-.684h-.024a3.446 3.446 0 0 1-.113.672c-.068.266-.145.549-.232.85l-.678 2.274h2.023Zm6.092-1.19a3.069 3.069 0 0 0-.113-.107 1.23 1.23 0 0 0-.482-.268 1.473 1.473 0 0 0-.958.06 1.159 1.159 0 0 0-.464.363 1.862 1.862 0 0 0-.309.648 3.613 3.613 0 0 0-.113.97c0 .42.034.773.101 1.059.067.286.161.514.28.684.119.17.264.294.434.369.171.075.359.113.565.113.293 0 .518-.052.672-.155.155-.103.264-.186.327-.25l.393.666a1.478 1.478 0 0 1-.465.369 2.007 2.007 0 0 1-.434.16 2.374 2.374 0 0 1-.589.066c-.317 0-.615-.052-.892-.155a1.76 1.76 0 0 1-.726-.512c-.206-.238-.369-.547-.488-.928s-.178-.853-.178-1.416c0-.547.071-1.012.214-1.392.143-.38.329-.688.559-.922.23-.234.486-.405.768-.512.282-.107.565-.161.851-.161.214 0 .403.02.565.059.163.04.301.089.417.149.115.06.21.123.286.19.075.067.137.125.184.173l-.405.68Zm3.856-.321h-1.25v3.165c0 .405.052.68.155.827.103.147.278.22.524.22.143 0 .266-.02.369-.06.103-.04.178-.075.226-.107l.131.773c-.04.032-.135.08-.286.149-.151.067-.353.1-.607.1-.492 0-.861-.136-1.107-.41-.246-.274-.369-.728-.369-1.363v-3.296h-.69v-.643l.69-.143.107-1.595h.857v1.595h1.368l-.118.788Zm2.059 4.926h-.964v-5.712h.964v5.712Zm-.476-7.092a.621.621 0 0 1-.476-.19.702.702 0 0 1-.178-.5.69.69 0 0 1 .178-.488.62.62 0 0 1 .476-.19c.19 0 .345.063.464.19.119.127.178.29.178.488a.702.702 0 0 1-.178.5.61.61 0 0 1-.464.19Zm1.69 4.236c0-.524.061-.976.185-1.357.123-.381.289-.692.5-.934.21-.242.452-.421.726-.536.274-.115.565-.173.875-.173.317 0 .611.057.881.173.27.115.504.294.702.536.198.242.355.553.47.934.115.38.173.833.173 1.357 0 .532-.06.988-.178 1.368a2.578 2.578 0 0 1-.494.934c-.21.242-.454.418-.732.53a2.352 2.352 0 0 1-.881.167c-.317 0-.611-.055-.881-.167a1.77 1.77 0 0 1-.702-.53 2.687 2.687 0 0 1-.47-.928c-.117-.376-.174-.834-.174-1.374Zm3.51 0c0-.762-.111-1.315-.333-1.66-.222-.345-.532-.518-.928-.518s-.704.173-.922.518c-.218.345-.327.898-.327 1.66 0 .762.111 1.309.333 1.642.222.333.531.5.928.5s.704-.167.922-.5c.218-.333.327-.88.327-1.642Zm5.331 2.856v-3.677c0-.484-.081-.831-.244-1.041-.163-.21-.411-.315-.744-.315-.286 0-.524.07-.714.214-.19.143-.341.282-.452.417v4.403h-.964V78.02h.881v.643h.024a1.505 1.505 0 0 1 .464-.47c.127-.083.278-.157.452-.22s.373-.095.595-.095c.254 0 .484.038.69.113.206.075.381.196.524.363.143.167.254.383.333.648.079.266.119.593.119.982v3.748l-.964-.001Z"/>
  </g>
  <defs>
    <clipPath id="a">
      <path fill="#fff" d="M0 0h341.575v192.756H0z"/>
    </clipPath>
  </defs>
</svg>
