<?xml version="1.0" encoding="UTF-8" standalone="no"?>
<svg
   viewBox="0 0 368.72429 382.89999"
   version="1.1"
   id="svg197"
   width="368.7243"
   height="382.89999"
   xmlns="http://www.w3.org/2000/svg"
   xmlns:svg="http://www.w3.org/2000/svg">
  <defs
     id="defs201" />
  <g
     id="a">
    <ellipse
       cx="184.3"
       cy="180.60001"
       rx="184.3"
       ry="180.60001"
       fill="#ffffff"
       id="ellipse2" />
    <path
       d="m 235.1,255.7 c 4.2,13.2 14.9,24.5 19.6,39.1 2.3,7.2 1.8,15.1 4.7,21.9 3.8,9 13.7,12.9 17.2,21.1 C 324.3,308 363,265.3 368.2,194.6 372.2,139.2 352.9,96 324.4,62.3 285.3,16.3 222.2,-8.9 145.9,2.9 91.8,11.2 44.8,49.8 21.5,94.4 4.6,126.7 -6.5,174.7 4.3,222 10.1,210.4 16,200.3 23.9,189.9 32.8,178.2 49.7,170 60.7,155.5 c 22.2,-29.4 35.9,-71.5 65,-90 25,-16 70.2,-15.7 109.6,-12.5 16.3,-3 35.4,0.8 50.1,8.6 4.4,2.3 6,8.6 9.4,11 10.3,7 34.2,10.2 36.8,22.7 1.4,6.8 -4.2,30.8 -7.8,36.8 -1.9,3.2 -6,3.9 -8.6,7 -2.7,3.3 -3,8.7 -5.5,11.7 -13.6,17.2 -39.6,14 -58.7,25 -1.1,5.1 -5.2,7.3 -8.6,10.2 -2.5,14.3 -4.1,27.5 -1.6,39.1 -2.9,2.3 -3.8,-4 -7.8,-3.1 0.4,15.5 2.4,29.4 12.5,35.2 -2.2,3.7 -7.4,-0.9 -10.2,-1.6 z"
       fill="#be1e2d"
       id="path4" />
  </g>
  <g
     id="b">
    <path
       d="m 255.5,69.4 c 1.3,1.4 3.5,1.7 6.3,1.6 V 70.2 H 261 c -2.5,0.4 -2.8,-1.4 -5.5,-0.8 z"
       fill="#001b2d"
       id="path7" />
    <path
       d="m 269.6,76.4 c -1.3,-1.6 0,-1 0,-3.1 -5.3,-1.9 -5.4,-1.7 -11.7,-1.6 3.4,2.1 9.5,1.4 11.7,4.7 z"
       fill="#001b2d"
       id="path9" />
    <path
       d="m 126.3,92.1 v -6.3 c -1.3,0.3 -1.3,5.9 0,6.3 z"
       fill="#001b2d"
       id="path11" />
    <path
       d="m 162.3,94.4 c -2.5,-0.4 -3.5,0.7 -3.1,3.1 1,-1.1 4.1,0 3.1,-3.1 z"
       fill="#001b2d"
       id="path13" />
    <path
       d="m 207.7,99.1 c -1.2,-2.3 -2.7,-1.2 -5.5,-0.8 0.3,1.8 3.9,0.3 5.5,0.8 z"
       fill="#001b2d"
       id="path15" />
    <path
       d="m 312.6,117.9 c 0.8,0.5 0.8,1.8 2.3,1.6 v -4.7 c -1.3,1.6 -5.2,0.5 -4.7,3.9 1.3,0.2 1.3,-0.7 2.3,-0.8 z"
       fill="#001c2d"
       id="path17" />
    <path
       d="m 305.6,125 c 0.7,-0.6 1.8,-0.8 3.1,-0.8 0.6,-1.5 1.3,-2.9 1.6,-4.7 h -3.9 c 0.5,2 -0.3,2.8 -2.3,2.3 -1,2.5 2.5,0.6 1.6,3.1 z"
       fill="#001c2d"
       id="path19" />
    <path
       d="m 261,141.4 c 1.9,-0.4 2.8,-1.9 3.9,-3.1 -1.3,-2 -3.4,1.7 -3.9,3.1 z"
       fill="#001b2d"
       id="path21" />
    <path
       d="m 138.9,154.7 c 1.2,1.2 2.3,2.4 3.1,3.9 1,-2.2 2.3,-4.1 -3.1,-3.9 z"
       fill="#001b2d"
       id="path23" />
    <path
       d="m 130.3,157.8 c 0,2.9 -0.9,2.2 0,4.7 2.1,-1.6 0.7,-3.4 3.1,0 2.1,-2.4 -3,-4.2 -3.9,-6.3 -1.3,0.5 -0.5,1.8 0.8,1.6 z"
       fill="#001b2d"
       id="path25" />
    <path
       d="m 117,163.3 c -2.8,1.6 1.6,2.5 1.6,3.9 2.8,-1.6 -1.6,-2.5 -1.6,-3.9 z"
       fill="#001c2d"
       id="path27" />
    <path
       d="m 221.8,175.8 c 2.2,-0.1 3.3,-1.4 3.1,-3.9 -1.3,1 -3.1,1.6 -3.1,3.9 z"
       fill="#001b2d"
       id="path29" />
    <path
       d="m 190.5,179 v -3.1 c -3.4,1.1 -4.6,0 -8.6,0.8 -0.1,1.9 1.2,2.4 1.6,3.9 4,1.2 3.4,-2.4 7,-1.6 z"
       fill="#001c2d"
       id="path31" />
    <path
       d="m 201.5,188.3 c 2.8,0.7 1.1,-3.1 1.6,-4.7 -2.8,-0.7 -1.1,3.1 -1.6,4.7 z"
       fill="#001c2d"
       id="path33" />
    <path
       d="m 211.6,217.3 c 3.6,1.6 2.2,8.3 7.8,7.8 1.5,-1.9 -0.9,-7.7 3.9,-6.3 -1,-9.5 6.4,-11.8 3.9,-18.8 -4.3,-0.3 -4.1,3.7 -7.8,3.9 2.4,4.4 -0.7,4.8 0,11 -4.2,-0.7 -12.5,0.3 -19.6,-0.8 v 3.1 c 2.8,0.1 5.8,0.2 11.7,0 z"
       fill="#001c2d"
       id="path35" />
    <path
       d="m 60.6,229.8 c -3,1.2 -0.9,1.2 -3.9,0 -2.4,3 2.1,7 0,9.4 0,2 2.6,1.6 4.7,1.6 -0.3,-3.3 3,-7.4 -0.8,-11 z"
       fill="#001c2d"
       id="path37" />
    <path
       d="m 183.5,270.5 c 1.5,2.7 3.2,-0.9 2.3,-3.1 -1.6,0.2 -0.2,3.5 -2.3,3.1 z"
       fill="#001c2d"
       id="path39" />
    <path
       d="m 257,356.6 h -3.9 c -1.2,2.4 5.1,2.4 3.9,0 z"
       fill="#001c2d"
       id="path41" />
    <path
       d="m 217.1,359 v 2.3 h 2.3 c 0.2,-1.3 -0.7,-1.3 -0.8,-2.3 H 217 Z"
       fill="#001c2d"
       id="path43" />
    <path
       d="m 267.2,361.3 c -0.9,-2.7 -5.2,-1.4 -7,-0.8 -0.6,2.7 6.5,1.8 7,0.8 z"
       fill="#001c2d"
       id="path45" />
    <path
       d="m 244.5,361.3 c -0.5,2.8 1.6,3.1 3.9,3.1 0,-2.2 -1,-3.7 -3.9,-3.1 z"
       fill="#001c2d"
       id="path47" />
    <path
       d="m 325.9,367.6 c -1,0 -1,2.2 0,2.3 1,-1.9 2.3,2.3 3.9,2.3 -0.8,-2.1 -3.1,-2.6 -3.9,-4.7 z"
       fill="#001b2d"
       id="path49" />
    <path
       d="m 255.7,320 c 0,-0.2 -0.2,-0.5 -0.3,-0.7 0,0.2 0.2,0.5 0.3,0.7 z"
       fill="#001c2d"
       id="path51" />
    <path
       d="m 228.1,215.9 c 0,0 0,0 0,-0.1 0,0 0,0 0,0 0,0 0,0.1 0,0.2 z"
       fill="#001c2d"
       id="path53" />
    <path
       d="m 257.1,75.3 c -0.3,0 -0.6,0.1 -0.8,0.3 0.3,0 0.6,-0.2 0.8,-0.3 z"
       fill="#001c2d"
       id="path55" />
    <path
       d="m 228.1,215.9 c -0.2,0.4 -0.5,0.8 -0.8,1.4 0.6,1.4 0.8,-0.3 0.8,-1.4 z"
       fill="#001c2d"
       id="path57" />
    <path
       d="m 208.7,73.7 c 0.3,0.3 0.9,0.2 1.4,0.3 -0.4,-0.1 -0.9,-0.3 -1.4,-0.3 z"
       fill="#001b2d"
       id="path59" />
    <path
       d="m 261.7,58.4 c -5.7,0.3 -12.9,-4.7 -16.4,-1.6 0,-3.1 -4,-1 -0.8,0 -2.5,0.9 -1.9,-1.2 -3.1,-1.6 0.5,1.1 -6.6,1.8 -3.1,-0.8 -3.6,-0.6 -2.2,0.9 -3.1,1.6 -0.7,-2.6 -1.8,0 -3.1,-1.6 0.2,1.1 1.3,1.3 1.6,2.3 8.1,1 19.2,3.1 28.2,5.5 -1,-1.9 1.7,-3.8 0,-3.9 z"
       fill="#001b2d"
       id="path61" />
    <path
       d="m 181.9,208.7 c 0.2,0.2 0.3,0.3 0.5,0.5 0,-0.2 -0.2,-0.3 -0.5,-0.5 z"
       fill="#001b2d"
       id="path63" />
    <path
       d="m 207.2,234.7 c 0.1,0.1 0.2,0.2 0.4,0.4 0,-0.2 0.1,-0.4 0.2,-0.6 -0.2,0 -0.4,0.1 -0.6,0.2 z"
       fill="#001b2d"
       id="path65" />
    <path
       d="m 206.2,231.4 c -1.1,0.2 -0.6,2 -0.8,3.1 0.8,0.8 1.1,0.5 1.8,0.2 -0.3,-0.3 -0.7,-0.7 -1,-1 z"
       fill="#001b2d"
       id="path67" />
    <path
       d="m 270.3,77.2 c 0.9,-0.1 0.7,-1.4 0.8,-2.3 1.7,0.7 2.3,2.4 4.7,2.3 -0.2,-2.4 -2.8,-2.4 -4.7,-3.1 0,0.8 -1,0.6 -1.6,0.8 0.4,0.6 0.8,1.3 0.8,2.3 z"
       fill="#001b2d"
       id="path69" />
    <path
       d="m 300.1,96 c 0.8,-0.5 0.8,-1.8 2.3,-1.6 0,-1.2 -2.1,-2.6 -1.6,0 -1.3,0.2 -2,-1.3 -2.3,0 -2.1,1.5 1.8,-1.1 1.6,1.6 z"
       fill="#001b2d"
       id="path71" />
    <path
       d="m 201.5,98.3 c 0.2,-2.1 -3,-0.6 -2.3,-3.1 -0.7,0.5 -1.4,0.9 -1.6,0 -0.8,0.8 -1.6,1.5 -2.3,2.3 -0.3,-0.9 -3.9,-2.2 -1.6,-3.1 -0.2,-1.1 -2,-0.6 -3.1,-0.8 0.9,5.1 4.3,4.4 11,4.7 z"
       fill="#001b2d"
       id="path73" />
    <path
       d="m 98.2,99.1 c 3.7,0.3 4.1,-1.2 5.5,-4.7 -2.4,-2.1 -3.4,3.9 -5.5,4.7 z"
       fill="#001b2d"
       id="path75" />
    <path
       d="m 156.9,103.8 c 0.1,-2.5 -4.4,-0.3 -3.1,-3.9 -0.6,0.1 -0.8,0.8 -1.6,0.8 -0.5,-2.5 1.5,-2.4 0,-3.9 -1.4,0.7 -2.7,1.5 -2.3,3.9 2.6,1.4 3.3,1.8 7,3.1 z"
       fill="#001b2d"
       id="path77" />
    <path
       d="m 319.6,101.5 c 1.7,-2.6 -1.8,-3.5 -3.9,-1.6 0.2,2.5 4.4,-2.5 3.9,1.6 z"
       fill="#001c2d"
       id="path79" />
    <path
       d="m 223.4,103 c 0.5,1.5 1.2,-0.8 0,-0.8 0.1,-0.9 0.8,-0.4 0.8,0 1,-0.2 1,-2.3 0,-2.3 -0.1,-0.7 0.3,-0.7 0.8,-0.8 -1.4,-1.1 -3,0 -6.3,-0.8 0.6,0.7 0.8,1.8 0.8,3.1 1.9,-0.1 3.8,-0.1 3.9,1.6 z"
       fill="#001b2d"
       id="path81" />
    <path
       d="m 249.2,100.7 c 0.9,3.1 25.8,2 7,1.6 0.2,-1.1 2,-0.6 3.1,-0.8 -3.3,-2.1 -6.7,0.4 -10.2,-0.8 z"
       fill="#001c2d"
       id="path83" />
    <path
       d="m 95,110.1 c 0.3,-2.1 0.3,-5.5 3.1,-7 -1,-3.9 -8.2,7.3 -3.1,7 z"
       fill="#001b2d"
       id="path85" />
    <path
       d="m 142,104.6 c -0.6,-0.4 -0.8,0 -0.8,0.6 0,-0.5 0.4,-0.6 0.8,-0.6 z"
       fill="#001b2d"
       id="path87" />
    <path
       d="m 141.2,105.4 c 0,0 0,0 0,0 0,0 0,-0.1 0,-0.2 0,0 0,0.1 0,0.2 z"
       fill="#001b2d"
       id="path89" />
    <path
       d="m 139.6,112.4 c 0,0.5 0.1,0.9 0.7,0.8 -0.4,-0.2 -0.6,-0.5 -0.7,-0.8 z"
       fill="#001b2d"
       id="path91" />
    <path
       d="m 95.8,132 c 0.3,1.9 -3.6,-0.4 -2.3,2.3 3.5,0 4.7,-2.1 6.3,-3.9 -2.3,0.8 -4.7,1 -3.9,1.6 z"
       fill="#001c2d"
       id="path93" />
    <path
       d="m 250,151.6 c 0,2.8 2.6,-1.7 2.3,0.8 0.9,-0.1 0.4,-0.8 0,-0.8 0,-1.6 2.1,-1 1.6,-3.1 -1.8,0.5 -2.1,2.6 -3.9,3.1 z"
       fill="#001b2d"
       id="path95" />
    <path
       d="m 104.4,153.1 c 1.8,0.3 -0.4,4.6 3.1,3.1 -1,-1.6 -2.2,-3.1 -3.1,-4.7 -1.9,-0.7 -0.2,4.5 0,1.6 z"
       fill="#001c2d"
       id="path97" />
    <path
       d="m 35.6,182.1 c 1.5,2.4 3.7,-0.9 3.1,-3.1 -1.8,0.2 -1.8,2.4 -3.1,3.1 z"
       fill="#001b2d"
       id="path99" />
    <path
       d="m 63.7,152.3 c 2.1,2 3.5,-3.3 4.7,-4.7 -3,0.1 -1.9,4.4 -4.7,4.7 z"
       fill="#001b2d"
       id="path101" />
    <path
       d="m 55.1,164.9 c 1.1,-0.4 1.9,-1.2 2.3,-2.3 0.6,-0.4 3.7,-0.6 1.6,-3.1 -2.2,1 -2.8,3.5 -3.9,5.5 z"
       fill="#001b2d"
       id="path103" />
    <path
       d="m 27.7,189.1 c 4.3,3.3 4.5,-4.4 7.8,-4.7 -2.9,-1.8 -5.1,3.7 -7.8,4.7 z"
       fill="#001b2d"
       id="path105" />
    <path
       d="m 23,195.4 c 2.7,2.3 1.8,-2.2 4.7,-3.1 -1.2,-1.7 -3.7,2 -4.7,3.1 z"
       fill="#001b2d"
       id="path107" />
    <path
       d="m 73.9,225.9 h -5.5 c -0.1,6.2 2.8,8.7 5.5,8.6 -1.1,1.8 2,2.9 0,3.1 1.4,-0.1 2.3,0.8 3.1,3.1 3.3,-0.6 2.4,-5.5 6.3,-5.5 -1.4,-4.9 -7.2,-5.3 -9.4,-9.4 z"
       fill="#001c2d"
       id="path109" />
    <path
       d="m 223.4,254.9 c 5.3,1.1 0.5,4.4 5.5,3.9 0,2 1.5,2.5 -0.8,3.1 2.9,1 6,6 5.5,7.8 0.1,0.9 0.8,0.4 0.8,0 0.7,-0.1 0.7,0.3 0.8,0.8 -0.1,-11.1 -11.2,-18 -14.9,-28.2 -2.4,4 6.3,7.8 3.1,12.5 z"
       fill="#001b2d"
       id="path111" />
    <path
       d="m 198.3,279.9 c 0.4,-4.6 -4.8,-10.3 -6.3,-15.7 -0.4,4.5 4.1,11.1 6.3,15.7 z"
       fill="#001b2d"
       id="path113" />
    <path
       d="m 207.7,283.8 c 0.2,1 1.6,0.8 1.6,0 2.5,0.9 2,4.8 3.9,6.3 1.3,-1.3 -2.1,-4.7 -2.3,-7 -1.4,0 -1.7,1 -3.1,0.8 z"
       fill="#001b2d"
       id="path115" />
    <path
       d="m 244.5,289.3 c 0.2,0.8 1.6,0.5 1.6,1.6 1.3,-0.6 -1.4,-3.8 -1.6,-5.5 -2.1,0 2.1,3.9 0,3.9 z"
       fill="#001b2d"
       id="path117" />
    <path
       d="m 127.1,314.3 c 2.4,-1.5 -1.2,-3.4 -0.8,-5.5 -2.5,0.7 -2.4,-1.2 -3.1,-2.3 -1.8,2.6 4.1,4.2 3.9,7.8 z"
       fill="#001b2d"
       id="path119" />
    <path
       d="m 211.6,351.1 c 0.5,-0.8 1.8,-0.8 1.6,-2.3 -6.4,-1.4 -10.7,-4.2 -19.6,-4.7 -0.8,1.8 -1.6,3.6 -3.1,4.7 3.6,6 9.7,9.6 18,11 0.8,-2.4 -1.7,-1.4 -3.1,-1.6 -0.5,-4 8.5,-6.1 9.4,0 4.5,0.4 7.3,0.9 10.2,-1.6 -2.4,-5.6 -7.6,-3.9 -13.3,-5.5 z"
       fill="#001c2d"
       id="path121" />
    <path
       d="m 180.8,248 c 0,-0.6 0,-1.2 0.1,-1.9 0,0.3 0,0.6 0,1 0,0.3 0,0.6 0,0.9 z"
       fill="#001c2d"
       id="path123" />
    <path
       d="m 134.4,149.8 c 0,0 0,0 0.1,0 0,0 0,0 -0.1,0 z"
       fill="#001c2d"
       id="path125" />
    <path
       d="m 133.1,148.1 c 0,0 0,0 0,0 v 0 c 0,0 0,0 0,0 z"
       fill="#001c2d"
       id="path127" />
    <path
       d="m 147.7,108 c 0,0 0.1,0 0.2,0 -0.1,0 -0.2,0 -0.4,-0.1 0,0 0.1,0 0.2,0 z"
       fill="#001c2d"
       id="path129" />
    <path
       d="m 180.8,250.8 c 0,0 0,0.2 0,0.3 0,0 0,0 0,0.1 0,-0.1 0,-0.3 0,-0.4 z"
       fill="#001c2d"
       id="path131" />
    <path
       d="m 232.2,289.4 c 0,0 0,0 0,0 0,0 0,0 -0.1,0 0,0 0,0 0,0 z"
       fill="#001c2d"
       id="path133" />
    <path
       d="m 133.4,148.3 c 0,0 -0.1,0 -0.2,-0.1 0,0 0,0 0,0 0,0 0.1,0 0.2,0.1 z"
       fill="#001c2d"
       id="path135" />
    <path
       d="m 214.6,281.4 v 0.2 c 0,-0.2 0,-0.5 0,-0.7 v 0 c 0,0 0,0 0,0 0,0.2 0,0.4 0,0.6 z"
       fill="#001c2d"
       id="path137" />
    <path
       d="m 214.5,279.3 v 0 c 0,0 0,0.1 0,0.2 0,0 0,0 0,-0.1 0,0 0,0 0,0 z"
       fill="#001c2d"
       id="path139" />
    <path
       d="m 214.5,279.1 c 0,0 0,0 0,0.1 v 0 c 0,0 0,0 0,0 0,0 0,0 0,0 z"
       fill="#001c2d"
       id="path141" />
    <path
       d="m 214.6,279.7 c 0,0 0,0 0,0 v 0 c 0,0 0,0 0,0 z"
       fill="#001c2d"
       id="path143" />
    <path
       d="m 180.8,251.3 c 0,0 0,0.2 0,0.3 0,0 0,0.1 0,0.2 v 0 c 0,-0.1 0,-0.3 0,-0.4 z"
       fill="#001c2d"
       id="path145" />
    <path
       d="m 214.1,276.7 c 0,0.2 0,0.4 0.1,0.6 v 0 c 0,-0.2 0,-0.4 -0.1,-0.6 z"
       fill="#001c2d"
       id="path147" />
    <path
       d="m 180.7,250.5 c 0,0 0,-0.1 0,-0.2 v 0 c 0,0.2 0,0.2 0,0.2 z"
       fill="#001c2d"
       id="path149" />
    <path
       d="m 176.4,196.2 c 0,0 0,0 0,0 v 0 c 0,0 0,0 0,0 z"
       fill="#001c2d"
       id="path151" />
    <path
       d="m 130,111.5 c 0.3,0 0.6,-0.1 0.9,-0.2 -0.3,0 -0.6,0 -0.9,0.2 z"
       fill="#001c2d"
       id="path153" />
    <path
       d="m 127.9,118.7 c 0.7,-1.1 0.6,-3 3.1,-2.3 0.1,-1.9 -1.2,-2.4 -1.6,-3.9 -3.1,1.3 -8.9,0 -7.8,5.5 2.5,-0.2 3.3,1.4 6.3,0.8 z"
       fill="#001c2d"
       id="path155" />
    <path
       d="m 195.8,59.1 c 0.3,0.1 0.5,0.2 0.9,0.1 -0.1,-0.5 0,-0.8 0.1,-1.1 0.3,-0.4 0.9,-0.5 1.4,-0.5 0,-0.2 0,-0.4 -0.2,-0.5 -0.4,-0.5 -1.2,-0.4 -2.1,-0.3 -0.9,0 -1.8,0.2 -2.4,0 1,0.5 1.2,1.8 2.2,2.2 z"
       fill="#001c2d"
       id="path157" />
    <path
       d="m 182.7,67 v -3.1 c -1.9,-0.1 -3.8,-0.1 -4.7,0.8 -0.5,2.8 2.3,2.4 4.7,2.3 z"
       fill="#001c2d"
       id="path159" />
    <path
       d="m 278.9,151.5 c 0,0 0,0 0,0.1 0.3,0 0.5,-0.2 0.6,-0.5 0,0 0,0 0,0 0.2,-0.5 0,-1.2 0.2,-1.8 h -2.3 v 2.3 c 0.7,-0.5 1.3,-0.9 1.5,-0.1 z"
       fill="#001c2d"
       id="path161" />
    <path
       d="m 281.7,130.6 c -0.6,-0.7 -1.7,-1.3 -2,-1.7 0,0 -0.2,0 -0.3,0 -0.5,0 -0.9,0.7 -1.2,1.3 -0.2,0.4 -0.4,0.8 -0.5,0.9 -0.2,0 -0.3,-0.2 -0.4,-1.4 0,0 -0.1,0 -0.2,0 0,0 0,0 0,0 -0.5,0.4 -0.4,1.4 -1.3,1.4 0.9,0.6 1.4,0.8 1.7,1.1 0.4,0.4 0.4,0.8 0.7,2 0.7,0 1.1,0 1.2,-0.2 0,-0.1 0,-0.3 -0.3,-0.4 -0.2,-0.1 -0.5,-0.2 -0.9,-0.1 0,0 0,0 0,0 0,0 0,0 0,0 0.1,-0.4 1.1,-1 2,-1.2 0.6,-0.2 1.1,-0.2 1.1,0.2 0,0 0,0.1 0,0.2 0.1,0 0.2,-0.1 0.3,-0.2 0.9,-0.6 0.7,-1.4 0.1,-2 z"
       fill="#001c2d"
       id="path163" />
    <path
       d="m 274.5,153.2 c 0,0 -0.1,0 -0.2,0 0,1.1 -1,2.1 -1.7,3.1 -0.8,1.2 -1.2,2.3 0.9,3.2 1.6,0 2.5,-0.4 3.2,-0.9 1.2,-1 1.4,-2.5 2.8,-3.4 0.3,-0.2 0.6,-0.3 1.1,-0.4 -0.5,-0.5 -1.2,-0.7 -2,-0.9 -1.3,-0.3 -2.8,-0.3 -4.1,-0.6 z"
       fill="#001c2d"
       id="path165" />
    <path
       d="m 246.1,85.8 c 0,0.1 0,0.2 0,0.3 0.2,0.5 0.7,0.1 0.7,-0.3 0.8,0 0.6,1 0.8,1.6 0.2,0 0.4,0 0.6,0 0,0 0.1,0 0.2,0 0.1,0 0.2,0 0.3,0 1.1,-0.2 1.9,-0.7 2.6,-1.3 0.4,-0.3 0.8,-0.7 1.2,-1 0,0 0.1,0 0.2,-0.1 0,0 0,0 0,0 0.3,-0.2 0.7,-0.4 1.1,-0.6 0.2,-2.2 -1,-2.9 -2.6,-3.3 -0.9,-0.2 -2,-0.4 -2.9,-0.6 0,0 0,0.1 0,0.2 0.2,1.6 0.1,3.1 -0.4,4.1 -0.4,0.7 -1,1.2 -2,1.2 z"
       fill="#001c2d"
       id="path167" />
    <path
       d="m 34.8,276 c 0,0 0.2,0.1 0.3,0.2 0.5,0.3 1,0.5 1.7,0.6 0.6,0 1.2,0.1 2,0 0,-0.2 0.1,-0.3 0.1,-0.4 0,-0.4 0,-0.8 -0.3,-1.1 -1.1,-1.3 -4.1,-1.4 -3.7,0.8 z"
       fill="#001c2d"
       id="path169" />
    <path
       d="m 270.3,61.6 c 1.6,1.5 3.7,2.5 6.3,3.1 -1.7,-2 -3.8,-3.5 -6.3,-4.7 0.5,0.7 0.9,1.4 0,1.6 z"
       fill="#001b2d"
       id="path171" />
    <path
       d="m 236.6,370.4 c -1.9,-0.2 -3.8,-0.3 -5.8,-0.5 2.4,0.7 4.5,0.6 5.8,0.5 z"
       fill="#001c2d"
       id="path173" />
    <path
       d="m 319.6,345.7 c -0.4,-0.1 -0.9,-0.2 -1.3,-0.4 -1.8,-0.2 -4.6,-0.5 -6.4,-0.7 -2.2,0.1 -4,0.3 -5.2,0.5 -0.9,0.1 -2,0.3 -3.5,0.6 -1.8,0.3 -2,0.3 -2.6,0.4 -1.5,0.3 -3.1,0.7 -5.2,0.4 -2.6,0 -4.6,0 -7,0 -3.6,-0.2 -6.6,-1.1 -9.2,-2.3 l -6.6,-4.7 -1,-1.2 -1.4,-2.5 c -0.4,-0.7 -0.9,-1.4 -1.4,-2.1 -0.2,-0.1 -0.5,-0.3 -0.7,-0.4 -0.7,-0.4 -1.4,-0.8 -2.1,-1.2 -0.6,-0.7 -1.1,-1.4 -1.7,-2.1 -0.4,-0.6 -1,-1.5 -1.9,-2.3 -1.6,-1.4 -2.8,-1.3 -3.8,-2.5 -0.5,-0.6 -1.1,-1.6 -1.2,-3.4 l -0.4,-2 c -2.3,-9.5 -4.7,-18.9 -7,-28.4 -2.1,-4.2 -4.9,-9.6 -8.3,-15.7 -1.5,-2.7 -3.4,-6.7 -12.1,-20.8 -3.1,-5.1 -6.2,-10.2 -9.2,-15.5 0.7,-2.1 1.8,1.8 3.1,1.6 v 0 c 0,0 0,0 0,0 2.5,3.2 5.4,6.1 8.6,8.6 0,0 0,0 0,0 v 0 c 1,0.8 2.9,0.8 3.1,2.4 0.7,-6.7 -5.8,-13 -4.7,-22.7 0,0 0,0 0,0 v -7 c 0,0 0,0 0,0 -0.4,-2.5 1.1,-3.1 1.6,-4.7 1.7,1.2 4.2,1.5 5.5,3.1 -1,-4.9 -2.6,-10.5 0,-18 0.1,-0.6 0.1,-1.4 0,-2.3 0,0.8 0,1.6 0,2.3 1.8,-0.8 0.3,-4.9 0.8,-7 0,0 0,0 0,0 0.5,-7.4 0.6,-15 7.8,-15.6 v -0.8 c 0,0 0,0 0,0 1.7,-0.1 1.7,-2 1.6,-3.9 0.2,-1.6 2.9,-0.7 3.1,-2.3 -1.9,-0.1 -2.4,1.2 -3.9,1.6 0,1.7 0.1,3.4 -0.5,4.4 0.6,-1 0.6,-2.6 0.5,-4.4 1.5,-0.3 2,-1.7 3.9,-1.6 19.1,-11.1 49.9,-8 58.7,-30.5 -4.6,0.4 -7.1,2.8 -12.5,2.3 0,0 0,0 0,0 -4.3,-0.4 -10.5,1.1 -12.5,-1.6 0.3,2 3.2,2.6 6.2,2.6 -3,0 -5.9,-0.6 -6.2,-2.6 v -0.8 c 30.4,3.1 43.1,-17.8 43.8,-47 -10.7,-6.5 -20.8,-13.7 -32.9,-18.8 -4.3,-1.9 -6.3,-6.2 -9.4,-9.4 -1.8,0.2 -0.5,3.4 0,3.9 h 0.8 c 0.2,1.8 2.7,1.5 2.3,3.9 -0.1,2 -2.7,0.2 -3.1,0 0.2,-1.8 -2.3,-0.9 -2.3,-2.4 -0.5,1.9 -0.3,2.9 -4.7,2.4 -6.2,-1.1 -10.8,-3.8 -17.2,-4.7 h -0.8 c -8.4,-2.3 -13.9,-7.5 -22.7,-9.4 0,0 0,0 0,0 -0.1,-1.7 2.8,-0.4 3.9,-0.8 0,0 0,0 0,0 10.5,-0.3 16.3,4 25,5.5 -0.5,-2.1 -3.6,-1.7 -3.9,-3.9 1.2,-1.9 5.5,-0.3 7,0 1,-0.2 0.5,-0.9 0,-1.6 -10.1,-4 -22.5,-5.6 -35.2,-7 -39.4,-3.2 -84.5,-3.4 -109.6,12.5 -29.1,18.5 -42.8,60.5 -65,90 -11,14.5 -27.9,22.7 -36.8,34.4 -7.8,10.4 -13.8,20.5 -19.6,32.1 10.3,41.6 31.5,72.3 58.7,97 0.2,0.2 0.4,0.4 0.6,0.6 0,0 0.2,0.1 0.2,0.2 0,0 0.2,0.1 0.2,0.2 0.2,0.2 0.4,0.3 0.6,0.4 0.4,0.2 0.7,0.4 1,0.4 2.8,0 -2.5,-14.4 -6.3,-25.4 0,0 0,0 0,0 -0.1,-0.4 -0.3,-0.8 -0.4,-1.2 0,0 0,-0.2 -0.1,-0.3 -0.1,-0.3 -0.2,-0.6 -0.3,-0.9 0,-0.2 0,-0.3 -0.1,-0.4 -0.1,-0.3 -0.2,-0.6 -0.3,-0.9 0,-0.1 0,-0.3 -0.1,-0.4 -0.1,-0.4 -0.3,-0.8 -0.4,-1.2 -1.7,-5.4 -5.8,-10 -3.9,-12.5 3.7,8.3 9.6,18.6 14.9,22.7 -3,-17.9 -10.7,-35.2 -11.7,-52.4 5.3,9.6 8.6,21.2 15.7,29 0.8,-13.6 -3.6,-26.2 -1.6,-38.3 9.7,22.4 19.4,44.8 31.3,65 2.8,-7.5 -1.5,-18.8 -0.8,-24.3 12.2,17.3 20.9,38 36,52.4 2.1,-2.4 -0.9,-6.3 0.8,-7.8 8.8,7.9 12.3,21.1 23.5,26.6 2.2,-0.2 1.8,-2.9 3.1,-3.9 5.5,15.3 24.7,10.3 36,17.2 6.2,4.1 12.4,5 18.7,5.4 0,0 0,0 0.1,0.1 0,0 0,0 0,0 0,0 0,0 0,0 l 11.3,0.9 c 1.9,0.2 3.8,0.3 5.8,0.5 0.9,0 1.4,-0.4 2.1,-0.5 0.8,0 1.5,0.1 1.4,0.1 0.4,0 0.6,-0.1 0.8,-0.3 0.3,-0.2 0.8,-0.6 1.2,-1.5 6.7,1.9 17.5,5.9 26.4,5.6 h 4.2 c 0,-0.1 4.6,-0.9 4.6,-0.9 11.9,-2.4 30.6,-12 39.1,0 3.5,2.8 6.6,6 9.5,9.5 0.7,-0.2 0.8,-0.2 1.5,-0.4 0.5,-5.1 -0.9,-8.3 -1.6,-12.2 l 3.9,2.3 c 0.6,0.1 0.8,0.8 1.6,0.8 1.3,2 7,8.1 6.3,4.7 -0.6,-5.1 -2.2,-9.3 -4.7,-12.5 1.5,-1.2 4.3,3 6.3,3.9 2.3,1.1 3.1,3.5 5.4,4.6 0.5,-0.4 0.2,-0.2 0.7,-0.6 -4.4,-13.2 -12,-23.4 -25.6,-27.5 z M 126.3,85.8 v 0 6.3 0 c 0.6,7.5 6.2,10 10.6,13.6 1.3,1.1 2.5,2.2 3.5,3.6 0,0 0,0 0,0 -7.5,2.6 -13.3,-1.7 -16.5,-8.3 -2.4,-4.9 -3.4,-11.1 -2.5,-16.7 0.9,-6.1 4,-11.3 9.6,-13.4 11.9,-1 19,2.9 22.7,10.2 0,0.2 0,0.4 0.2,0.6 0.3,0.5 0.8,0.8 0.6,1.8 -0.4,-0.1 -0.7,-0.4 -1,-0.6 -1.3,-1 -2,-2.7 -3.7,-3.3 -1.9,-2.1 -5.1,-3.6 -8.4,-4.2 -5.3,-1 -11.2,0 -13.8,4 -1,1.6 -1.6,3.8 -1.3,6.4 z m 25.9,38.4 c 2.5,-1.6 5.9,-2.4 7.8,-4.7 -4.3,-1.1 -8.3,2 -11,0 1,-1.6 4.1,-1.1 4.7,-3.1 -1.2,-0.1 -2.9,0.3 -3.1,-0.8 2.7,-1.7 7.9,-1 10.2,-3.1 -0.5,-1.8 -3.6,-1.1 -3.9,-3.1 1.1,-0.4 4,0.9 3.9,-0.8 -0.6,-1.7 -3.7,-1 -3.9,-3.1 2.2,-0.1 6.1,2.2 7.8,0 -2,-3.5 -6.8,-4.1 -9.4,-7 6.6,0.2 11.1,2.5 17.2,3.1 -0.3,-2.8 -4.5,-1.7 -4.7,-4.7 17.5,3.1 39.2,2 54,7.8 h -13.3 c 1,2.1 4,2.2 4.7,4.7 -7.2,0.7 -14.8,-2.4 -21.1,0 3,2.5 10.2,0.7 11.7,4.7 -10.5,1.5 -22.9,1.1 -31.3,4.7 1.8,1.8 5.2,2.1 6.3,4.7 -7.7,0.9 -18.5,2.8 -26.6,0.8 z m 61,54 c 0,-3.7 3.8,-7.6 1.6,-11 -4.2,1.8 -7.6,4.4 -12.5,5.5 2.6,-6.8 10.2,-8.5 12.5,-15.7 -8.2,2.5 -16.7,8.9 -24.3,9.4 8.7,-7.5 19.8,-16.7 25,-25 -10.1,3.7 -19,12.8 -32.9,10.2 4.8,-6.2 13.6,-12.5 15.7,-18.8 -7.5,1.9 -13.1,5.7 -19.6,8.6 19.2,-25.5 56.7,-36.6 101.7,-33.6 -14.7,2.8 -38.5,3.2 -47,14.9 9.4,-1.8 25.6,-10.1 39.1,-11 0,0 18,-0.2 7.8,0.8 -12.9,2.5 -27.8,7.2 -32.9,14.9 10.5,-4.1 21.9,-11.5 35.2,-10.2 -19.9,4.4 -41.1,15.7 -45.4,30.5 12.1,-11.1 26.4,-24.2 44.6,-26.6 -18.8,10.7 -32.1,26.8 -45.4,43 0.4,-1.7 1.9,-5.1 -0.8,-5.5 -7.9,5.1 -16.5,17.9 -22.7,19.6 z"
       fill="#001b2d"
       id="path175" />
  </g>
  <g
     id="c">
    <path
       d="m 167.8,96.8 c 0.1,3 4.4,1.9 4.7,4.7 -6.1,-0.7 -10.6,-2.9 -17.2,-3.1 2.6,2.9 7.4,3.6 9.4,7 -1.7,2.2 -5.6,-0.1 -7.8,0 0.2,2.1 3.3,1.4 3.9,3.1 0.1,1.7 -2.8,0.4 -3.9,0.8 0.4,2 3.4,1.3 3.9,3.1 -2.3,2.2 -7.5,1.4 -10.2,3.1 0.2,1.1 2,0.6 3.1,0.8 -0.6,2.1 -3.7,1.5 -4.7,3.1 2.6,2 6.7,-1.1 11,0 -1.9,2.3 -5.3,3.1 -7.8,4.7 8.1,2.1 18.9,0.1 26.6,-0.8 -1,-2.6 -4.4,-2.9 -6.3,-4.7 8.4,-3.6 20.8,-3.2 31.3,-4.7 -1.5,-4 -8.8,-2.2 -11.7,-4.7 6.3,-2.4 13.9,0.7 21.1,0 -0.7,-2.4 -3.7,-2.6 -4.7,-4.7 h 13.3 c -14.8,-5.8 -36.5,-4.8 -54,-7.8 z"
       fill="#f68c42"
       id="path178" />
    <path
       d="m 164.7,346.4 c -1.3,1 -1,3.7 -3.1,3.9 -11.2,-5.5 -14.7,-18.7 -23.5,-26.6 -1.7,1.6 1.3,5.4 -0.8,7.8 -15,-14.4 -23.8,-35.2 -36,-52.4 -0.7,5.5 3.5,16.7 0.8,24.3 -11.9,-20.2 -21.6,-42.6 -31.3,-65 -2,12.2 2.4,24.7 1.6,38.3 -7.1,-7.8 -10.4,-19.4 -15.7,-29 1,17.2 8.7,34.6 11.7,52.4 -5.3,-4.1 -11.2,-14.4 -14.9,-22.7 -1.9,2.5 2.2,7.2 3.9,12.5 0.1,0.4 0.3,0.8 0.4,1.2 0,0.1 0,0.3 0.1,0.4 0,0.3 0.2,0.6 0.3,0.9 0,0.1 0.1,0.3 0.2,0.4 0.1,0.3 0.2,0.6 0.3,0.9 0,0.1 0,0.2 0.1,0.3 0.1,0.4 0.3,0.8 0.4,1.1 0,0 0,0 0,0 4.2,12 10.1,28 5.4,25 0,0 0,0 0,0 32.3,27.2 74.5,47.9 136.1,43.2 -11.3,-6.9 -30.5,-1.9 -36,-17.2 z"
       fill="#f68c42"
       id="path180" />
    <path
       d="m 178.8,141.4 c 6.4,-2.9 12,-6.8 19.6,-8.6 -2,6.3 -10.9,12.6 -15.7,18.8 13.8,2.6 22.8,-6.5 32.9,-10.2 -5.2,8.3 -16.4,17.6 -25,25 7.6,-0.5 16,-6.9 24.3,-9.4 -2.3,7.1 -9.9,8.9 -12.5,15.7 5,-1 8.3,-3.7 12.5,-5.5 2.2,3.3 -1.5,7.3 -1.6,11 6.2,-1.7 14.8,-14.4 22.7,-19.6 2.7,0.4 1.2,3.8 0.8,5.5 13.3,-16.2 26.6,-32.4 45.4,-43 -18.2,2.4 -32.5,15.5 -44.6,26.6 4.3,-14.8 25.5,-26.1 45.4,-30.5 -13.3,-1.3 -24.7,6.1 -35.2,10.2 5.1,-7.7 20,-12.4 32.9,-14.9 10.2,-1 -7.8,-0.8 -7.8,-0.8 -13.5,0.9 -29.8,9.2 -39.1,11 8.5,-11.6 32.3,-12.1 47,-14.9 -45.1,-3 -82.6,8.2 -101.7,33.7 z"
       fill="#ffffff"
       id="path182" />
    <path
       d="m 141.4,75.3 c 3.4,0.7 6.5,2.2 8.4,4.2 1.7,0.7 2.4,2.3 3.7,3.3 0.3,0.2 0.6,0.4 1,0.6 0.2,-1 -0.4,-1.3 -0.6,-1.8 0,-0.2 -0.1,-0.3 -0.2,-0.6 C 150,73.7 142.9,69.9 131,70.8 c -5.6,2.1 -8.7,7.3 -9.6,13.4 -0.8,5.6 0.1,11.8 2.5,16.7 3.2,6.6 9,10.9 16.5,8.3 -1,-1.4 -2.2,-2.5 -3.5,-3.6 -4.5,-3.6 -10,-6.1 -10.6,-13.6 v 0 c -1.3,-0.4 -1.3,-5.9 0,-6.3 v 0 c -0.3,-2.7 0.3,-4.8 1.3,-6.4 2.6,-4.1 8.5,-5.1 13.8,-4 z"
       fill="#ffffff"
       id="path184" />
    <path
       d="m 313.4,103 c 1,2.3 3.1,3.7 7,3.1 -1,-2.2 -5.4,-4 -7,-3.1 z"
       fill="#ffffff"
       id="path186" />
    <path
       d="m 230.6,83.1 h -4.7 c 1.1,1.5 1.7,3.5 4.7,3.1 h 7 c 3.1,-1.1 6.2,-2.1 7,-5.5 -3.5,0 -4.9,1.9 -7.8,2.3 -0.3,1.3 -5.9,1.3 -6.3,0 z"
       fill="#ffffff"
       id="path188" />
    <path
       d="m 220.4,69 c -0.8,1.1 -3.2,3.7 0.8,3.1 6.6,-4 15.6,-1.7 21.1,1.6 -0.9,-8.1 -16.4,-10.6 -21.9,-4.7 z"
       fill="#ffffff"
       id="path190" />
    <path
       d="M 233,76.1 V 73 h -3.1 c -0.6,2.7 0.4,3.7 3.1,3.1 z"
       fill="#ffffff"
       id="path192" />
    <path
       d="m 246.3,74.5 c -0.2,0 -0.3,0.1 -0.4,0.2 0,0.1 0,0.3 0,0.5 0.1,0.3 0.3,0.7 -0.2,0.8 0,0 -0.1,0 -0.2,0 -1,-2.2 -1.8,-4.6 -3.1,-6.5 -1.2,-1.8 -2.9,-3.2 -5.5,-3.7 0,0 0,0 0,0 0,0 0,0 0,0 0.1,0 0.3,-0.2 0.3,-0.3 1,-1.1 -0.9,-2.7 -1.1,-2.4 0,0 0,0.4 0.7,1.1 0,0 0,0 0,0 -5.3,-0.2 -12.8,-0.2 -17.1,2.9 -1.9,1.4 -3.2,3.5 -3.2,6.5 4,0.6 6.2,-0.6 9,-1.2 0.6,-0.2 1.3,-0.3 2,-0.4 1,0.2 1.3,2.3 0.6,3.5 -0.4,0.7 -1.1,1 -2.2,0.5 0.2,0.3 0.5,0.6 0.8,0.8 1.4,1.3 3.2,2 4.7,3.1 0.9,-0.7 2,-1.2 2.9,-1.8 1.1,-0.8 1.9,-1.8 1.8,-3.6 -1,0.3 -1.4,0.3 -1.4,0.2 0,-0.1 0.7,-0.5 1.6,-0.7 1.6,-0.3 4,-0.2 5.2,2.1 -0.2,0.3 -0.3,0.6 -0.4,0.9 -1,1.8 -1.2,1.9 0.6,2.2 0.2,0 0.4,0 0.6,0.1 -0.9,0.8 -1.8,1.3 -2.8,1.6 -1.8,0.6 -3.8,0.6 -5.8,0.6 -3.1,0 -6.4,-0.3 -9.3,0.9 1.7,9.9 17.1,5.6 22.7,2.3 -0.1,-0.2 -0.2,-0.4 -0.3,-0.6 -0.5,-1.5 0,-3.3 0.4,-5 0.1,-0.5 0.2,-1.1 0.3,-1.6 0.1,-1.3 0,-2.3 -1.2,-3 z M 233,76.1 c -2.7,0.6 -3.7,-0.4 -3.1,-3.1 h 3.1 z m -11.8,-3.9 c -4,0.6 -1.6,-2 -0.8,-3.1 5.6,-5.9 21,-3.4 21.9,4.7 -5.6,-3.3 -14.5,-5.6 -21.1,-1.6 z m 16.4,14 c -0.3,0.7 -1.9,1 -3.6,1 -1.6,0 -3.1,-0.3 -3.5,-0.9 0,0 0,0 0,0 -2.9,0.3 -3.6,-1.7 -4.7,-3.1 h 11 c 3,-0.4 4.3,-2.4 7.8,-2.3 -0.8,3.4 -4,4.4 -7,5.5 z"
       fill="#001c2d"
       id="path194" />
  </g>
</svg>
